<svg xmlns="http://www.w3.org/2000/svg" xmlns:xlink="http://www.w3.org/1999/xlink" width="500" zoomAndPan="magnify" viewBox="0 0 375 374.999991" height="500" preserveAspectRatio="xMidYMid meet" version="1.0"><defs><clipPath id="1b2b5e9949"><path d="M 113 8.09375 L 262 8.09375 L 262 259 L 113 259 Z M 113 8.09375 " clip-rule="nonzero"/></clipPath><clipPath id="88bf207396"><path d="M 73.988281 178 L 301.238281 178 L 301.238281 374.84375 L 73.988281 374.84375 Z M 73.988281 178 " clip-rule="nonzero"/></clipPath><clipPath id="188507bbc9"><path d="M 90.886719 74.28125 L 284.386719 74.28125 L 284.386719 213.78125 L 90.886719 213.78125 Z M 90.886719 74.28125 " clip-rule="nonzero"/></clipPath></defs><g clip-path="url(#1b2b5e9949)"><path fill="#312f84" d="M 187.539062 258.882812 C 228.425781 258.882812 261.679688 225.585938 261.679688 184.648438 L 261.679688 82.355469 C 261.679688 62.589844 253.976562 43.941406 239.972656 29.824219 C 225.980469 15.832031 207.359375 8.128906 187.539062 8.128906 C 146.609375 8.128906 113.300781 41.425781 113.300781 82.367188 L 113.300781 184.660156 C 113.300781 225.585938 146.609375 258.882812 187.539062 258.882812 Z M 187.539062 258.882812 " fill-opacity="1" fill-rule="nonzero"/></g><g clip-path="url(#88bf207396)"><path fill="#312f84" d="M 301.035156 187.929688 C 301.035156 182.898438 296.957031 178.820312 291.925781 178.820312 C 286.898438 178.820312 282.820312 182.898438 282.820312 187.929688 C 282.820312 240.511719 240.078125 283.292969 187.546875 283.292969 C 134.964844 283.292969 92.183594 240.511719 92.183594 187.929688 C 92.183594 182.898438 88.105469 178.820312 83.074219 178.820312 C 78.042969 178.820312 73.96875 182.898438 73.96875 187.929688 C 73.96875 247.480469 120.074219 296.386719 178.441406 301.050781 L 178.441406 356.734375 L 149.585938 356.734375 C 144.554688 356.734375 140.480469 360.8125 140.480469 365.84375 C 140.480469 370.871094 144.554688 374.949219 149.585938 374.949219 L 225.511719 374.949219 C 230.542969 374.949219 234.617188 370.871094 234.617188 365.84375 C 234.617188 360.8125 230.542969 356.734375 225.511719 356.734375 L 196.65625 356.734375 L 196.65625 301.039062 C 254.984375 296.386719 301.035156 247.480469 301.035156 187.929688 Z M 301.035156 187.929688 " fill-opacity="1" fill-rule="nonzero"/></g><g clip-path="url(#188507bbc9)"><path fill="#8282db" d="M 271.21875 74.378906 C 264.121094 74.378906 258.328125 80.175781 258.328125 87.269531 C 258.328125 90.851562 259.824219 94.105469 262.167969 96.449219 L 219.789062 163.308594 C 218.421875 162.789062 216.921875 162.527344 215.359375 162.527344 C 210.609375 162.527344 206.441406 165.128906 204.230469 168.972656 L 172.394531 158.75 C 172.460938 158.359375 172.460938 157.96875 172.460938 157.515625 C 172.460938 150.417969 166.664062 144.625 159.570312 144.625 C 152.472656 144.625 146.679688 150.417969 146.679688 157.515625 C 146.679688 159.53125 147.136719 161.421875 147.980469 163.113281 L 111.980469 191.234375 C 109.765625 189.347656 106.902344 188.242188 103.777344 188.242188 C 96.683594 188.242188 90.886719 194.035156 90.886719 201.132812 C 90.886719 208.226562 96.683594 214.019531 103.777344 214.019531 C 110.875 214.019531 116.667969 208.226562 116.667969 201.132812 C 116.667969 199.113281 116.210938 197.226562 115.367188 195.53125 L 151.367188 167.410156 C 153.582031 169.296875 156.445312 170.402344 159.570312 170.402344 C 164.320312 170.402344 168.488281 167.800781 170.703125 163.960938 L 202.535156 174.179688 C 202.472656 174.570312 202.472656 174.960938 202.472656 175.417969 C 202.472656 182.511719 208.265625 188.308594 215.359375 188.308594 C 222.457031 188.308594 228.25 182.511719 228.25 175.417969 C 228.25 171.835938 226.753906 168.582031 224.410156 166.238281 L 266.789062 99.378906 C 268.15625 99.898438 269.65625 100.160156 271.21875 100.160156 C 278.3125 100.160156 284.105469 94.367188 284.105469 87.269531 C 284.105469 80.109375 278.3125 74.378906 271.21875 74.378906 Z M 271.21875 74.378906 " fill-opacity="1" fill-rule="nonzero"/></g></svg>