<svg xmlns="http://www.w3.org/2000/svg" xmlns:xlink="http://www.w3.org/1999/xlink" width="500" zoomAndPan="magnify" viewBox="0 0 375 374.999991" height="500" preserveAspectRatio="xMidYMid meet" version="1.0"><defs><clipPath id="47782acb9f"><path d="M 40 25.203125 L 363 25.203125 L 363 347 L 40 347 Z M 40 25.203125 " clip-rule="nonzero"/></clipPath><clipPath id="4486b1cb4c"><rect x="0" width="323" y="0" height="322"/></clipPath></defs><g clip-path="url(#47782acb9f)"><g transform="matrix(1, 0, 0, 1, 40, 25)"><g clip-path="url(#4486b1cb4c)"><path fill="#343696" d="M 60.015625 221.1875 C 60.015625 221.1875 63.070312 311.515625 72.671875 318.054688 C 82.269531 324.597656 130.699219 317.46875 133.757812 308.152344 C 136.8125 298.835938 136.375 283.152344 117.617188 268.765625 C 98.859375 254.382812 105.394531 207.679688 105.394531 207.679688 Z M 60.015625 221.1875 " fill-opacity="1" fill-rule="nonzero"/><path fill="#8282db" d="M 177.421875 28.148438 L 13.183594 174.449219 C 12.445312 175.105469 11.734375 175.785156 11.050781 176.496094 C 10.367188 177.207031 9.714844 177.945312 9.09375 178.710938 C 8.472656 179.472656 7.882812 180.261719 7.324219 181.074219 C 6.769531 181.886719 6.246094 182.722656 5.757812 183.578125 C 5.269531 184.433594 4.816406 185.308594 4.398438 186.203125 C 3.984375 187.097656 3.605469 188.003906 3.261719 188.929688 C 2.921875 189.851562 2.617188 190.789062 2.351562 191.738281 C 2.085938 192.6875 1.859375 193.648438 1.675781 194.613281 C 1.488281 195.582031 1.34375 196.554688 1.238281 197.535156 C 1.128906 198.515625 1.066406 199.5 1.039062 200.484375 C 1.015625 201.46875 1.03125 202.453125 1.085938 203.4375 C 1.140625 204.421875 1.238281 205.402344 1.371094 206.378906 C 1.507812 207.355469 1.683594 208.324219 1.902344 209.285156 C 2.117188 210.246094 2.371094 211.199219 2.664062 212.136719 C 2.960938 213.078125 3.292969 214.003906 3.660156 214.917969 C 4.03125 215.832031 4.4375 216.730469 4.882812 217.609375 L 5.851562 219.539062 C 6.683594 221.179688 7.632812 222.753906 8.703125 224.25 C 9.773438 225.75 10.953125 227.15625 12.242188 228.472656 C 13.527344 229.789062 14.910156 231 16.382812 232.105469 C 17.855469 233.210938 19.402344 234.199219 21.027344 235.066406 C 22.652344 235.933594 24.335938 236.671875 26.070312 237.28125 C 27.808594 237.890625 29.585938 238.363281 31.394531 238.699219 C 33.207031 239.035156 35.03125 239.230469 36.871094 239.289062 C 38.710938 239.34375 40.546875 239.261719 42.375 239.035156 L 266.789062 211.253906 Z M 177.421875 28.148438 " fill-opacity="1" fill-rule="nonzero"/><path fill="#ebf3fc" d="M 182.667969 24.90625 C 181.84375 25.304688 181.042969 25.742188 180.257812 26.21875 C 179.472656 26.691406 178.707031 27.203125 177.960938 27.75 C 177.214844 28.292969 176.492188 28.875 175.785156 29.492188 C 175.082031 30.113281 174.398438 30.765625 173.734375 31.449219 C 173.074219 32.136719 172.433594 32.859375 171.8125 33.613281 C 171.195312 34.367188 170.601562 35.15625 170.027344 35.976562 C 169.453125 36.796875 168.90625 37.652344 168.378906 38.535156 C 167.851562 39.421875 167.351562 40.335938 166.871094 41.285156 C 166.394531 42.230469 165.941406 43.207031 165.511719 44.214844 C 165.085938 45.222656 164.679688 46.257812 164.304688 47.320312 C 163.925781 48.386719 163.574219 49.476562 163.246094 50.59375 C 162.917969 51.714844 162.617188 52.859375 162.34375 54.03125 C 162.066406 55.199219 161.820312 56.394531 161.597656 57.613281 C 161.375 58.835938 161.179688 60.078125 161.011719 61.34375 C 160.84375 62.609375 160.699219 63.898438 160.585938 65.207031 C 160.46875 66.515625 160.382812 67.84375 160.320312 69.195312 C 160.257812 70.542969 160.222656 71.910156 160.21875 73.296875 C 160.210938 74.683594 160.230469 76.085938 160.277344 77.507812 C 160.324219 78.925781 160.398438 80.359375 160.5 81.808594 C 160.597656 83.261719 160.726562 84.722656 160.882812 86.199219 C 161.035156 87.675781 161.21875 89.164062 161.425781 90.660156 C 161.632812 92.160156 161.867188 93.667969 162.128906 95.1875 C 162.390625 96.707031 162.675781 98.234375 162.988281 99.765625 C 163.304688 101.300781 163.640625 102.839844 164.007812 104.386719 C 164.371094 105.933594 164.761719 107.484375 165.175781 109.039062 C 165.59375 110.59375 166.03125 112.148438 166.496094 113.707031 C 166.960938 115.269531 167.449219 116.828125 167.964844 118.386719 C 168.476562 119.945312 169.015625 121.503906 169.574219 123.0625 C 170.136719 124.617188 170.71875 126.171875 171.324219 127.722656 C 171.933594 129.273438 172.5625 130.816406 173.210938 132.355469 C 173.863281 133.898438 174.535156 135.429688 175.230469 136.953125 C 175.921875 138.480469 176.636719 139.996094 177.371094 141.503906 C 178.105469 143.011719 178.863281 144.507812 179.636719 145.996094 C 180.410156 147.480469 181.203125 148.953125 182.015625 150.417969 C 182.828125 151.878906 183.65625 153.324219 184.503906 154.757812 C 185.351562 156.1875 186.21875 157.605469 187.097656 159.007812 C 187.980469 160.40625 188.875 161.789062 189.789062 163.15625 C 190.703125 164.519531 191.628906 165.867188 192.570312 167.191406 C 193.511719 168.519531 194.46875 169.824219 195.4375 171.109375 C 196.40625 172.394531 197.386719 173.65625 198.378906 174.894531 C 199.375 176.132812 200.378906 177.351562 201.394531 178.542969 C 202.410156 179.734375 203.4375 180.898438 204.472656 182.039062 C 205.507812 183.179688 206.550781 184.296875 207.605469 185.382812 C 208.65625 186.46875 209.71875 187.527344 210.785156 188.558594 C 211.851562 189.589844 212.925781 190.59375 214.003906 191.566406 C 215.085938 192.539062 216.171875 193.480469 217.257812 194.390625 C 218.347656 195.300781 219.441406 196.179688 220.539062 197.03125 C 221.632812 197.878906 222.734375 198.691406 223.835938 199.476562 C 224.933594 200.257812 226.035156 201.007812 227.140625 201.722656 C 228.242188 202.4375 229.34375 203.121094 230.445312 203.765625 C 231.546875 204.414062 232.644531 205.027344 233.742188 205.601562 C 234.839844 206.179688 235.9375 206.71875 237.027344 207.222656 C 238.117188 207.726562 239.207031 208.195312 240.289062 208.628906 C 241.371094 209.058594 242.449219 209.453125 243.519531 209.8125 C 244.589844 210.167969 245.65625 210.488281 246.710938 210.769531 C 247.769531 211.054688 248.816406 211.296875 249.859375 211.503906 C 250.898438 211.710938 251.929688 211.878906 252.949219 212.011719 C 253.972656 212.140625 254.980469 212.234375 255.980469 212.289062 C 256.980469 212.34375 257.96875 212.359375 258.945312 212.335938 C 259.921875 212.316406 260.882812 212.253906 261.832031 212.15625 C 262.78125 212.058594 263.714844 211.917969 264.636719 211.746094 C 265.558594 211.570312 266.460938 211.355469 267.351562 211.105469 C 268.242188 210.855469 269.113281 210.566406 269.972656 210.242188 C 270.828125 209.914062 271.667969 209.550781 272.488281 209.152344 C 273.3125 208.75 274.113281 208.3125 274.898438 207.839844 C 275.683594 207.363281 276.449219 206.855469 277.195312 206.308594 C 277.941406 205.761719 278.664062 205.179688 279.371094 204.5625 C 280.074219 203.945312 280.757812 203.292969 281.421875 202.605469 C 282.082031 201.917969 282.722656 201.195312 283.34375 200.441406 C 283.960938 199.6875 284.558594 198.898438 285.128906 198.078125 C 285.703125 197.257812 286.253906 196.40625 286.777344 195.519531 C 287.304688 194.632812 287.804688 193.71875 288.285156 192.769531 C 288.761719 191.824219 289.214844 190.847656 289.644531 189.839844 C 290.070312 188.832031 290.476562 187.796875 290.851562 186.734375 C 291.230469 185.671875 291.585938 184.578125 291.910156 183.460938 C 292.238281 182.34375 292.539062 181.199219 292.8125 180.027344 C 293.089844 178.855469 293.335938 177.660156 293.558594 176.441406 C 293.78125 175.222656 293.976562 173.976562 294.144531 172.710938 C 294.316406 171.445312 294.457031 170.15625 294.570312 168.847656 C 294.6875 167.539062 294.773438 166.210938 294.835938 164.859375 C 294.898438 163.511719 294.933594 162.144531 294.9375 160.757812 C 294.945312 159.371094 294.925781 157.96875 294.878906 156.550781 C 294.832031 155.128906 294.757812 153.695312 294.65625 152.246094 C 294.558594 150.796875 294.429688 149.332031 294.273438 147.855469 C 294.121094 146.382812 293.9375 144.894531 293.730469 143.394531 C 293.523438 141.894531 293.289062 140.386719 293.027344 138.867188 C 292.765625 137.347656 292.480469 135.824219 292.167969 134.289062 C 291.851562 132.753906 291.515625 131.214844 291.148438 129.667969 C 290.785156 128.121094 290.394531 126.570312 289.980469 125.015625 C 289.566406 123.464844 289.125 121.90625 288.660156 120.347656 C 288.195312 118.789062 287.707031 117.230469 287.191406 115.667969 C 286.679688 114.109375 286.140625 112.550781 285.582031 110.992188 C 285.019531 109.4375 284.4375 107.882812 283.832031 106.332031 C 283.222656 104.785156 282.597656 103.238281 281.945312 101.699219 C 281.292969 100.160156 280.621094 98.625 279.929688 97.101562 C 279.234375 95.574219 278.519531 94.058594 277.785156 92.550781 C 277.050781 91.042969 276.292969 89.546875 275.519531 88.0625 C 274.746094 86.574219 273.953125 85.101562 273.140625 83.640625 C 272.328125 82.179688 271.5 80.730469 270.652344 79.300781 C 269.804688 77.867188 268.9375 76.449219 268.058594 75.050781 C 267.175781 73.648438 266.28125 72.265625 265.367188 70.902344 C 264.453125 69.535156 263.527344 68.191406 262.585938 66.863281 C 261.644531 65.539062 260.6875 64.230469 259.71875 62.945312 C 258.75 61.664062 257.769531 60.402344 256.777344 59.160156 C 255.78125 57.921875 254.777344 56.707031 253.761719 55.515625 C 252.746094 54.324219 251.722656 53.15625 250.683594 52.015625 C 249.648438 50.875 248.605469 49.761719 247.550781 48.671875 C 246.5 47.585938 245.441406 46.527344 244.371094 45.496094 C 243.304688 44.464844 242.230469 43.464844 241.152344 42.492188 C 240.070312 41.519531 238.984375 40.578125 237.898438 39.664062 C 236.808594 38.753906 235.714844 37.875 234.617188 37.027344 C 233.523438 36.179688 232.421875 35.363281 231.324219 34.582031 C 230.222656 33.796875 229.121094 33.046875 228.019531 32.332031 C 226.914062 31.617188 225.8125 30.933594 224.710938 30.289062 C 223.609375 29.640625 222.511719 29.03125 221.414062 28.453125 C 220.316406 27.878906 219.21875 27.335938 218.128906 26.832031 C 217.039062 26.328125 215.949219 25.859375 214.867188 25.429688 C 213.785156 24.996094 212.707031 24.601562 211.636719 24.246094 C 210.566406 23.886719 209.503906 23.566406 208.445312 23.285156 C 207.386719 23.003906 206.339844 22.757812 205.296875 22.550781 C 204.257812 22.34375 203.226562 22.175781 202.207031 22.042969 C 201.183594 21.914062 200.175781 21.820312 199.175781 21.765625 C 198.175781 21.710938 197.1875 21.695312 196.210938 21.71875 C 195.238281 21.742188 194.273438 21.800781 193.324219 21.902344 C 192.375 22 191.441406 22.136719 190.519531 22.3125 C 189.597656 22.484375 188.695312 22.699219 187.804688 22.949219 C 186.914062 23.199219 186.042969 23.488281 185.183594 23.816406 C 184.328125 24.140625 183.488281 24.503906 182.667969 24.90625 Z M 182.667969 24.90625 " fill-opacity="1" fill-rule="nonzero"/><path fill="#312f84" d="M 174.699219 100.292969 C 177.617188 112.859375 181.929688 124.929688 187.632812 136.5 C 193.570312 148.804688 200.90625 160.207031 209.640625 170.710938 C 229.941406 194.8125 253.667969 206.617188 270.433594 198.433594 C 293.878906 186.988281 294.878906 140.714844 272.601562 95.058594 C 250.324219 49.402344 213.308594 21.683594 189.824219 33.125 C 172.671875 41.496094 167.511719 68.519531 174.699219 100.292969 Z M 174.699219 100.292969 " fill-opacity="1" fill-rule="nonzero"/><path fill="#8282db" d="M 174.699219 100.292969 C 177.617188 112.859375 181.929688 124.929688 187.632812 136.5 C 193.570312 148.804688 200.90625 160.207031 209.640625 170.710938 C 214.804688 161.394531 224.535156 150.050781 242.734375 141.605469 L 217.546875 89.964844 C 217.546875 89.964844 195.3125 99.972656 174.699219 100.292969 Z M 174.699219 100.292969 " fill-opacity="1" fill-rule="nonzero"/><path fill="#ebf3fc" d="M 217.53125 89.96875 C 217.132812 90.160156 216.757812 90.394531 216.402344 90.671875 C 216.050781 90.945312 215.71875 91.261719 215.410156 91.613281 C 215.101562 91.96875 214.820312 92.363281 214.558594 92.792969 C 214.300781 93.222656 214.066406 93.6875 213.855469 94.191406 C 213.648438 94.691406 213.46875 95.226562 213.3125 95.796875 C 213.15625 96.367188 213.027344 96.964844 212.929688 97.597656 C 212.828125 98.226562 212.753906 98.886719 212.710938 99.570312 C 212.667969 100.257812 212.648438 100.96875 212.660156 101.703125 C 212.671875 102.4375 212.710938 103.191406 212.777344 103.96875 C 212.847656 104.746094 212.941406 105.539062 213.0625 106.347656 C 213.1875 107.160156 213.335938 107.984375 213.511719 108.820312 C 213.691406 109.65625 213.890625 110.503906 214.121094 111.359375 C 214.351562 112.214844 214.605469 113.074219 214.886719 113.9375 C 215.164062 114.804688 215.46875 115.671875 215.792969 116.539062 C 216.121094 117.40625 216.472656 118.269531 216.84375 119.128906 C 217.214844 119.988281 217.605469 120.84375 218.019531 121.6875 C 218.429688 122.535156 218.859375 123.367188 219.308594 124.191406 C 219.757812 125.011719 220.226562 125.820312 220.707031 126.613281 C 221.1875 127.402344 221.683594 128.175781 222.195312 128.929688 C 222.703125 129.683594 223.222656 130.414062 223.757812 131.121094 C 224.289062 131.828125 224.832031 132.507812 225.382812 133.164062 C 225.929688 133.820312 226.488281 134.445312 227.050781 135.039062 C 227.613281 135.636719 228.179688 136.199219 228.75 136.730469 C 229.320312 137.261719 229.890625 137.757812 230.464844 138.21875 C 231.035156 138.679688 231.605469 139.105469 232.171875 139.492188 C 232.742188 139.878906 233.304688 140.226562 233.863281 140.535156 C 234.421875 140.847656 234.972656 141.113281 235.515625 141.34375 C 236.058594 141.570312 236.59375 141.757812 237.117188 141.902344 C 237.640625 142.046875 238.152344 142.152344 238.652344 142.210938 C 239.152344 142.273438 239.636719 142.289062 240.105469 142.265625 C 240.574219 142.242188 241.023438 142.175781 241.460938 142.066406 C 241.894531 141.957031 242.308594 141.804688 242.707031 141.609375 C 243.101562 141.417969 243.476562 141.183594 243.832031 140.910156 C 244.1875 140.632812 244.515625 140.320312 244.824219 139.964844 C 245.132812 139.609375 245.417969 139.21875 245.675781 138.785156 C 245.9375 138.355469 246.171875 137.890625 246.378906 137.386719 C 246.585938 136.886719 246.769531 136.351562 246.925781 135.78125 C 247.078125 135.210938 247.207031 134.613281 247.308594 133.980469 C 247.40625 133.351562 247.480469 132.695312 247.523438 132.007812 C 247.570312 131.320312 247.585938 130.613281 247.574219 129.878906 C 247.5625 129.140625 247.523438 128.386719 247.457031 127.609375 C 247.390625 126.835938 247.296875 126.039062 247.171875 125.230469 C 247.050781 124.421875 246.898438 123.597656 246.722656 122.757812 C 246.546875 121.921875 246.34375 121.078125 246.113281 120.222656 C 245.886719 119.367188 245.628906 118.503906 245.351562 117.640625 C 245.070312 116.773438 244.769531 115.910156 244.441406 115.042969 C 244.113281 114.175781 243.765625 113.308594 243.394531 112.449219 C 243.023438 111.589844 242.628906 110.734375 242.21875 109.890625 C 241.804688 109.042969 241.375 108.210938 240.925781 107.386719 C 240.476562 106.566406 240.011719 105.757812 239.53125 104.964844 C 239.046875 104.175781 238.550781 103.402344 238.042969 102.648438 C 237.53125 101.894531 237.011719 101.164062 236.480469 100.457031 C 235.945312 99.75 235.40625 99.070312 234.855469 98.414062 C 234.304688 97.761719 233.746094 97.132812 233.183594 96.539062 C 232.621094 95.941406 232.054688 95.378906 231.484375 94.847656 C 230.914062 94.316406 230.34375 93.820312 229.773438 93.359375 C 229.199219 92.898438 228.632812 92.472656 228.0625 92.085938 C 227.496094 91.699219 226.933594 91.351562 226.375 91.042969 C 225.816406 90.734375 225.261719 90.464844 224.71875 90.234375 C 224.175781 90.007812 223.640625 89.820312 223.117188 89.675781 C 222.59375 89.53125 222.082031 89.429688 221.582031 89.367188 C 221.085938 89.304688 220.601562 89.289062 220.132812 89.3125 C 219.664062 89.335938 219.210938 89.40625 218.777344 89.515625 C 218.339844 89.625 217.925781 89.773438 217.53125 89.96875 Z M 217.53125 89.96875 " fill-opacity="1" fill-rule="nonzero"/></g></g></g></svg>