<svg xmlns="http://www.w3.org/2000/svg" xmlns:xlink="http://www.w3.org/1999/xlink" width="1519" zoomAndPan="magnify" viewBox="0 0 1139.25 356.999992" height="476" preserveAspectRatio="xMidYMid meet" version="1.0"><defs><g/><clipPath id="04a8702c59"><path d="M 0 4 L 1138.5 4 L 1138.5 329 L 0 329 Z M 0 4 " clip-rule="nonzero"/></clipPath><clipPath id="a0b8c5f040"><path d="M 0 67 L 153 67 L 153 270 L 0 270 Z M 0 67 " clip-rule="nonzero"/></clipPath><clipPath id="d5baff9ea6"><rect x="0" width="1139" y="0" height="325"/></clipPath></defs><g clip-path="url(#04a8702c59)"><g transform="matrix(1, 0, 0, 1, 0, 4)"><g clip-path="url(#d5baff9ea6)"><g clip-path="url(#a0b8c5f040)"><g fill="#333594" fill-opacity="1"><g transform="translate(-33.900408, 269.323768)"><g><path d="M 81.59375 -202.125 C 111.582031 -202.125 134.550781 -196.785156 150.5 -186.109375 C 166.457031 -175.441406 174.4375 -158.863281 174.4375 -136.375 C 174.4375 -122.34375 171.21875 -110.953125 164.78125 -102.203125 C 158.34375 -93.460938 149.066406 -86.59375 136.953125 -81.59375 C 140.992188 -76.59375 145.222656 -70.875 149.640625 -64.4375 C 154.066406 -58 158.441406 -51.269531 162.765625 -44.25 C 167.085938 -37.238281 171.265625 -29.9375 175.296875 -22.34375 C 179.335938 -14.75 183.085938 -7.300781 186.546875 0 L 136.09375 0 C 132.4375 -6.53125 128.734375 -13.160156 124.984375 -19.890625 C 121.242188 -26.617188 117.398438 -33.15625 113.453125 -39.5 C 109.515625 -45.84375 105.625 -51.847656 101.78125 -57.515625 C 97.9375 -63.191406 94.09375 -68.335938 90.25 -72.953125 L 68.046875 -72.953125 L 68.046875 0 L 23.0625 0 L 23.0625 -196.921875 C 32.863281 -198.847656 43.003906 -200.195312 53.484375 -200.96875 C 63.960938 -201.738281 73.332031 -202.125 81.59375 -202.125 Z M 84.1875 -163.765625 C 80.925781 -163.765625 77.992188 -163.664062 75.390625 -163.46875 C 72.796875 -163.28125 70.347656 -163.09375 68.046875 -162.90625 L 68.046875 -108.703125 L 80.734375 -108.703125 C 97.648438 -108.703125 109.757812 -110.816406 117.0625 -115.046875 C 124.363281 -119.273438 128.015625 -126.484375 128.015625 -136.671875 C 128.015625 -146.472656 124.3125 -153.4375 116.90625 -157.5625 C 109.507812 -161.695312 98.601562 -163.765625 84.1875 -163.765625 Z M 84.1875 -163.765625 "/></g></g></g></g><g fill="#333594" fill-opacity="1"><g transform="translate(151.21033, 269.323768)"><g><path d="M 78.140625 -29.984375 C 82.367188 -29.984375 86.40625 -30.078125 90.25 -30.265625 C 94.09375 -30.460938 97.164062 -30.753906 99.46875 -31.140625 L 99.46875 -63.71875 C 97.738281 -64.101562 95.144531 -64.488281 91.6875 -64.875 C 88.226562 -65.257812 85.054688 -65.453125 82.171875 -65.453125 C 78.140625 -65.453125 74.34375 -65.210938 70.78125 -64.734375 C 67.226562 -64.253906 64.101562 -63.335938 61.40625 -61.984375 C 58.71875 -60.640625 56.601562 -58.8125 55.0625 -56.5 C 53.53125 -54.195312 52.765625 -51.316406 52.765625 -47.859375 C 52.765625 -41.128906 55.019531 -36.46875 59.53125 -33.875 C 64.050781 -31.28125 70.253906 -29.984375 78.140625 -29.984375 Z M 74.671875 -155.703125 C 87.359375 -155.703125 97.929688 -154.257812 106.390625 -151.375 C 114.847656 -148.488281 121.625 -144.351562 126.71875 -138.96875 C 131.8125 -133.59375 135.414062 -127.054688 137.53125 -119.359375 C 139.644531 -111.671875 140.703125 -103.117188 140.703125 -93.703125 L 140.703125 -4.328125 C 134.554688 -2.984375 126.003906 -1.398438 115.046875 0.421875 C 104.085938 2.253906 90.820312 3.171875 75.25 3.171875 C 65.445312 3.171875 56.554688 2.304688 48.578125 0.578125 C 40.609375 -1.148438 33.738281 -3.984375 27.96875 -7.921875 C 22.195312 -11.867188 17.773438 -17.015625 14.703125 -23.359375 C 11.628906 -29.703125 10.09375 -37.484375 10.09375 -46.703125 C 10.09375 -55.546875 11.867188 -63.039062 15.421875 -69.1875 C 18.984375 -75.34375 23.742188 -80.242188 29.703125 -83.890625 C 35.660156 -87.546875 42.484375 -90.191406 50.171875 -91.828125 C 57.859375 -93.460938 65.832031 -94.28125 74.09375 -94.28125 C 79.675781 -94.28125 84.628906 -94.039062 88.953125 -93.5625 C 93.273438 -93.082031 96.78125 -92.457031 99.46875 -91.6875 L 99.46875 -95.71875 C 99.46875 -103.03125 97.253906 -108.894531 92.828125 -113.3125 C 88.410156 -117.726562 80.726562 -119.9375 69.78125 -119.9375 C 62.46875 -119.9375 55.253906 -119.40625 48.140625 -118.34375 C 41.035156 -117.289062 34.890625 -115.804688 29.703125 -113.890625 L 24.21875 -148.484375 C 26.71875 -149.253906 29.84375 -150.070312 33.59375 -150.9375 C 37.34375 -151.800781 41.425781 -152.566406 45.84375 -153.234375 C 50.257812 -153.910156 54.921875 -154.488281 59.828125 -154.96875 C 64.734375 -155.457031 69.679688 -155.703125 74.671875 -155.703125 Z M 74.671875 -155.703125 "/></g></g></g><g fill="#333594" fill-opacity="1"><g transform="translate(310.659326, 269.323768)"><g><path d="M 6.0625 53.34375 C 3.363281 53.34375 -0.625 53.050781 -5.90625 52.46875 C -11.195312 51.894531 -16.148438 50.835938 -20.765625 49.296875 L -15 14.421875 C -12.113281 15.378906 -9.46875 16.050781 -7.0625 16.4375 C -4.65625 16.820312 -1.628906 17.015625 2.015625 17.015625 C 8.742188 17.015625 13.453125 14.992188 16.140625 10.953125 C 18.835938 6.921875 20.1875 1.0625 20.1875 -6.625 L 20.1875 -151.65625 L 63.140625 -151.65625 L 63.140625 -5.484375 C 63.140625 14.515625 58.238281 29.316406 48.4375 38.921875 C 38.632812 48.535156 24.507812 53.34375 6.0625 53.34375 Z M 67.1875 -195.484375 C 67.1875 -187.609375 64.640625 -181.410156 59.546875 -176.890625 C 54.453125 -172.367188 48.441406 -170.109375 41.515625 -170.109375 C 34.597656 -170.109375 28.59375 -172.367188 23.5 -176.890625 C 18.40625 -181.410156 15.859375 -187.609375 15.859375 -195.484375 C 15.859375 -203.367188 18.40625 -209.566406 23.5 -214.078125 C 28.59375 -218.597656 34.597656 -220.859375 41.515625 -220.859375 C 48.441406 -220.859375 54.453125 -218.597656 59.546875 -214.078125 C 64.640625 -209.566406 67.1875 -203.367188 67.1875 -195.484375 Z M 67.1875 -195.484375 "/></g></g></g><g fill="#333594" fill-opacity="1"><g transform="translate(393.98799, 269.323768)"><g><path d="M 20.1875 -146.46875 C 27.488281 -148.582031 36.90625 -150.550781 48.4375 -152.375 C 59.96875 -154.207031 72.078125 -155.125 84.765625 -155.125 C 97.648438 -155.125 108.367188 -153.441406 116.921875 -150.078125 C 125.472656 -146.710938 132.242188 -141.953125 137.234375 -135.796875 C 142.234375 -129.648438 145.789062 -122.347656 147.90625 -113.890625 C 150.019531 -105.429688 151.078125 -96.015625 151.078125 -85.640625 L 151.078125 0 L 108.125 0 L 108.125 -80.4375 C 108.125 -94.28125 106.296875 -104.082031 102.640625 -109.84375 C 98.992188 -115.613281 92.171875 -118.5 82.171875 -118.5 C 79.097656 -118.5 75.832031 -118.351562 72.375 -118.0625 C 68.914062 -117.78125 65.835938 -117.445312 63.140625 -117.0625 L 63.140625 0 L 20.1875 0 Z M 20.1875 -146.46875 "/></g></g></g><g fill="#333594" fill-opacity="1"><g transform="translate(563.817019, 269.323768)"><g><path d="M 63.140625 0 L 20.1875 0 L 20.1875 -151.65625 L 63.140625 -151.65625 Z M 67.1875 -195.484375 C 67.1875 -187.609375 64.640625 -181.410156 59.546875 -176.890625 C 54.453125 -172.367188 48.441406 -170.109375 41.515625 -170.109375 C 34.597656 -170.109375 28.59375 -172.367188 23.5 -176.890625 C 18.40625 -181.410156 15.859375 -187.609375 15.859375 -195.484375 C 15.859375 -203.367188 18.40625 -209.566406 23.5 -214.078125 C 28.59375 -218.597656 34.597656 -220.859375 41.515625 -220.859375 C 48.441406 -220.859375 54.453125 -218.597656 59.546875 -214.078125 C 64.640625 -209.566406 67.1875 -203.367188 67.1875 -195.484375 Z M 67.1875 -195.484375 "/></g></g></g><g fill="#333594" fill-opacity="1"><g transform="translate(647.145647, 269.323768)"><g><path d="M 18.734375 -189.4375 L 61.703125 -196.34375 L 61.703125 -151.65625 L 113.3125 -151.65625 L 113.3125 -115.90625 L 61.703125 -115.90625 L 61.703125 -62.5625 C 61.703125 -53.53125 63.285156 -46.320312 66.453125 -40.9375 C 69.628906 -35.5625 76.023438 -32.875 85.640625 -32.875 C 90.242188 -32.875 95 -33.304688 99.90625 -34.171875 C 104.8125 -35.035156 109.28125 -36.234375 113.3125 -37.765625 L 119.375 -4.328125 C 114.175781 -2.210938 108.40625 -0.390625 102.0625 1.140625 C 95.71875 2.679688 87.9375 3.453125 78.71875 3.453125 C 66.988281 3.453125 57.28125 1.867188 49.59375 -1.296875 C 41.90625 -4.472656 35.753906 -8.894531 31.140625 -14.5625 C 26.523438 -20.226562 23.300781 -27.097656 21.46875 -35.171875 C 19.644531 -43.242188 18.734375 -52.179688 18.734375 -61.984375 Z M 18.734375 -189.4375 "/></g></g></g><g fill="#333594" fill-opacity="1"><g transform="translate(775.166218, 269.323768)"><g><path d="M 63.140625 0 L 20.1875 0 L 20.1875 -151.65625 L 63.140625 -151.65625 Z M 67.1875 -195.484375 C 67.1875 -187.609375 64.640625 -181.410156 59.546875 -176.890625 C 54.453125 -172.367188 48.441406 -170.109375 41.515625 -170.109375 C 34.597656 -170.109375 28.59375 -172.367188 23.5 -176.890625 C 18.40625 -181.410156 15.859375 -187.609375 15.859375 -195.484375 C 15.859375 -203.367188 18.40625 -209.566406 23.5 -214.078125 C 28.59375 -218.597656 34.597656 -220.859375 41.515625 -220.859375 C 48.441406 -220.859375 54.453125 -218.597656 59.546875 -214.078125 C 64.640625 -209.566406 67.1875 -203.367188 67.1875 -195.484375 Z M 67.1875 -195.484375 "/></g></g></g><g fill="#333594" fill-opacity="1"><g transform="translate(858.494882, 269.323768)"><g><path d="M 156.84375 0 C 154.726562 -6.914062 152.375 -14.023438 149.78125 -21.328125 C 147.1875 -28.640625 144.640625 -35.945312 142.140625 -43.25 L 64.296875 -43.25 C 61.796875 -35.945312 59.25 -28.640625 56.65625 -21.328125 C 54.0625 -14.023438 51.707031 -6.914062 49.59375 0 L 2.890625 0 C 10.378906 -21.53125 17.488281 -41.425781 24.21875 -59.6875 C 30.945312 -77.945312 37.53125 -95.148438 43.96875 -111.296875 C 50.40625 -127.441406 56.75 -142.769531 63 -157.28125 C 69.25 -171.789062 75.738281 -185.96875 82.46875 -199.8125 L 125.421875 -199.8125 C 131.953125 -185.96875 138.390625 -171.789062 144.734375 -157.28125 C 151.078125 -142.769531 157.46875 -127.441406 163.90625 -111.296875 C 170.351562 -95.148438 176.9375 -77.945312 183.65625 -59.6875 C 190.382812 -41.425781 197.5 -21.53125 205 0 Z M 102.9375 -154.546875 C 101.96875 -151.660156 100.519531 -147.71875 98.59375 -142.71875 C 96.675781 -137.71875 94.46875 -131.953125 91.96875 -125.421875 C 89.476562 -118.890625 86.742188 -111.679688 83.765625 -103.796875 C 80.785156 -95.921875 77.753906 -87.65625 74.671875 -79 L 131.484375 -79 C 128.398438 -87.65625 125.414062 -95.921875 122.53125 -103.796875 C 119.65625 -111.679688 116.921875 -118.890625 114.328125 -125.421875 C 111.734375 -131.953125 109.472656 -137.71875 107.546875 -142.71875 C 105.617188 -147.71875 104.082031 -151.660156 102.9375 -154.546875 Z M 102.9375 -154.546875 "/></g></g></g><g fill="#333594" fill-opacity="1"><g transform="translate(1066.384095, 269.323768)"><g><path d="M 23.0625 -199.8125 L 68.046875 -199.8125 L 68.046875 0 L 23.0625 0 Z M 23.0625 -199.8125 "/></g></g></g></g></g></g></svg>