<svg xmlns="http://www.w3.org/2000/svg" xmlns:xlink="http://www.w3.org/1999/xlink" width="500" zoomAndPan="magnify" viewBox="0 0 375 374.999991" height="500" preserveAspectRatio="xMidYMid meet" version="1.0"><defs><clipPath id="62b8c3dc0e"><path d="M 86.136719 8.09375 L 288.636719 8.09375 L 288.636719 366 L 86.136719 366 Z M 86.136719 8.09375 " clip-rule="nonzero"/></clipPath><clipPath id="846b84526c"><path d="M 245 212.871094 L 330 212.871094 L 330 297 L 245 297 Z M 245 212.871094 " clip-rule="nonzero"/></clipPath><clipPath id="22680d512c"><path d="M 305 276 L 352.839844 276 L 352.839844 324 L 305 324 Z M 305 276 " clip-rule="nonzero"/></clipPath><clipPath id="5bd4a27fdc"><path d="M 202.839844 270 L 270 270 L 270 337.371094 L 202.839844 337.371094 Z M 202.839844 270 " clip-rule="nonzero"/></clipPath></defs><g clip-path="url(#62b8c3dc0e)"><path fill="#312f84" d="M 133.707031 363.566406 C 121.375 362.078125 105.988281 359.339844 99.515625 357.472656 C 88.578125 354.320312 87.683594 353.347656 86.882812 343.71875 C 86.179688 335.265625 87.023438 333.09375 91.46875 331.929688 C 96.863281 330.519531 96.863281 330.425781 91.652344 321.882812 C 88.757812 317.140625 86.386719 311.199219 86.382812 308.683594 C 86.378906 301.925781 98.5 288.699219 111.941406 280.824219 C 129.335938 270.628906 131.757812 266.90625 126.355469 258.664062 C 120.0625 249.054688 120.734375 246.726562 131.257812 241.707031 C 143.09375 236.0625 155.179688 209.679688 155.746094 188.25 L 156.125 174.019531 L 140.183594 171.15625 C 124.550781 168.34375 116.707031 162.222656 120.621094 155.890625 C 121.566406 154.359375 131.03125 148.730469 141.652344 143.382812 L 160.960938 133.660156 L 153.074219 128.753906 C 124.070312 110.714844 113.90625 76.230469 128.410156 45.085938 C 140.367188 19.410156 166.550781 8.160156 190.535156 8.75 C 240.285156 9.972656 251.824219 38.800781 251.78125 72.335938 C 251.679688 98.679688 239.941406 119.703125 219.214844 130.703125 C 214.582031 133.164062 216.40625 134.769531 233.746094 143.5 C 251.714844 152.550781 253.492188 154.175781 252.71875 160.886719 C 251.925781 167.746094 250.585938 168.476562 234.476562 170.859375 L 217.089844 173.429688 L 218.234375 188.640625 C 219.914062 210.957031 232.027344 236.046875 243.84375 241.679688 C 253.917969 246.484375 255.707031 251.726562 249.128906 257.1875 C 241.257812 263.714844 244.585938 270.199219 260.894531 280.105469 C 269.621094 285.40625 279.058594 292.28125 281.863281 295.382812 C 288.414062 302.621094 288.398438 315.707031 281.859375 322.964844 C 277.464844 327.816406 277.300781 329.003906 280.71875 331.164062 C 287.457031 333.617188 288.773438 336.8125 288.816406 343.015625 C 288.816406 353.691406 284.386719 356.238281 257.359375 361.121094 C 234.164062 365.3125 160.359375 366.769531 133.730469 363.566406 Z M 133.707031 363.566406 " fill-opacity="1" fill-rule="nonzero"/></g><g clip-path="url(#846b84526c)"><path fill="#8282db" d="M 329.179688 246.371094 L 324.796875 234.242188 L 315.988281 237.425781 C 313.671875 233.53125 310.785156 230.539062 307.355469 228.019531 L 311.476562 219.3125 L 299.8125 213.855469 L 295.570312 222.667969 C 291.441406 221.640625 287.070312 221.425781 282.597656 222.132812 L 279.25 212.871094 L 267.121094 217.253906 L 270.46875 226.519531 C 266.992188 228.679688 263.632812 231.703125 261.113281 235.128906 L 252.429688 230.996094 L 246.984375 242.660156 L 255.730469 246.671875 C 254.707031 250.796875 254.414062 254.941406 255.121094 259.414062 L 245.746094 262.800781 L 250.128906 274.929688 L 259.507812 271.542969 C 261.820312 275.4375 264.769531 278.601562 268.195312 281.117188 L 264.097656 289.925781 L 275.785156 295.425781 L 279.761719 286.726562 C 283.882812 287.75 288.398438 287.9375 292.453125 287.375 L 295.675781 296.300781 L 307.808594 291.921875 L 304.585938 283 C 308.476562 280.683594 311.699219 277.714844 314.214844 274.289062 L 323.042969 278.375 L 328.554688 266.691406 L 319.785156 262.484375 C 320.8125 258.359375 321.078125 254.027344 320.363281 249.554688 Z M 292.976562 268.316406 C 285.429688 271.042969 277.105469 267.136719 274.378906 259.589844 C 271.652344 252.046875 275.558594 243.71875 283.105469 240.992188 C 290.648438 238.265625 298.976562 242.171875 301.703125 249.71875 C 304.429688 257.265625 300.523438 265.59375 292.976562 268.316406 Z M 292.976562 268.316406 " fill-opacity="1" fill-rule="nonzero"/></g><g clip-path="url(#22680d512c)"><path fill="#8282db" d="M 352.230469 305.640625 L 352.839844 298.453125 L 347.636719 298.015625 C 347.378906 295.40625 346.597656 293.390625 345.445312 291.316406 L 349.5625 287.90625 L 344.917969 282.441406 L 340.589844 285.917969 C 338.734375 284.4375 337.054688 283.359375 334.011719 282.625 L 334.46875 277.257812 L 326.765625 276.605469 L 326.3125 281.976562 C 324.734375 282.320312 322.027344 283.042969 319.953125 284.191406 L 316.710938 280.089844 L 311.328125 284.742188 L 314.882812 288.738281 C 313.402344 290.585938 312.351562 292.449219 311.660156 294.976562 L 306.125 294.507812 L 305.519531 301.695312 L 311.054688 302.164062 C 311.269531 305.28125 312.070312 307.039062 313.21875 309.113281 L 309.089844 312.660156 L 313.730469 318.191406 L 317.382812 314.683594 C 319.234375 316.164062 321.773438 317.347656 323.273438 317.949219 L 322.863281 322.804688 L 330.566406 323.457031 L 330.976562 318.601562 C 334.09375 318.386719 335.933594 317.589844 338.007812 316.441406 L 341.59375 320.574219 L 347.140625 315.9375 L 343.699219 311.691406 C 345.179688 309.839844 346.296875 308.242188 347.027344 305.203125 Z M 328.757812 308.476562 C 324.300781 308.097656 320.988281 304.175781 321.367188 299.71875 C 321.742188 295.257812 325.664062 291.945312 330.125 292.324219 C 334.582031 292.699219 337.894531 296.621094 337.515625 301.082031 C 337.140625 305.542969 333.21875 308.851562 328.757812 308.476562 Z M 328.757812 308.476562 " fill-opacity="1" fill-rule="nonzero"/></g><g clip-path="url(#5bd4a27fdc)"><path fill="#8282db" d="M 269.925781 309.367188 L 269.925781 299.085938 L 262.722656 299.085938 C 262.046875 295.300781 260.703125 292.292969 258.832031 289.5 L 264.230469 283.992188 L 257.03125 276.742188 L 251.132812 282.113281 C 248.335938 280.242188 245.039062 278.875 241.25 278.199219 L 241.25 270.414062 L 230.972656 270.414062 L 230.972656 278.203125 C 227.726562 278.875 224.933594 280.21875 222.144531 282.085938 L 217.011719 276.683594 L 209.941406 283.890625 L 215.417969 289.503906 C 213.550781 292.292969 212.277344 295.300781 211.601562 299.085938 L 202.839844 299.085938 L 202.839844 309.367188 L 211.605469 309.367188 C 212.277344 312.613281 213.617188 315.695312 215.488281 318.484375 L 210.082031 323.761719 L 217.285156 330.902344 L 222.144531 325.464844 C 224.933594 327.332031 227.726562 328.644531 230.972656 329.316406 L 230.972656 337.5 L 241.25 337.5 L 241.25 329.316406 C 245.039062 328.644531 248.335938 327.300781 251.128906 325.433594 L 256.78125 330.835938 L 264.105469 323.632812 L 258.769531 318.488281 C 260.640625 315.695312 262.046875 312.613281 262.71875 309.367188 Z M 237.332031 315.296875 C 230.996094 315.296875 225.859375 310.160156 225.859375 303.820312 C 225.859375 297.484375 230.996094 292.34375 237.332031 292.34375 C 243.671875 292.34375 248.808594 297.484375 248.808594 303.820312 C 248.808594 310.160156 243.671875 315.296875 237.332031 315.296875 Z M 237.332031 315.296875 " fill-opacity="1" fill-rule="nonzero"/></g></svg>