<svg xmlns="http://www.w3.org/2000/svg" xmlns:xlink="http://www.w3.org/1999/xlink" width="500" zoomAndPan="magnify" viewBox="0 0 375 374.999991" height="500" preserveAspectRatio="xMidYMid meet" version="1.0"><defs><clipPath id="2ae90d856e"><path d="M 0.785156 0 L 375 0 L 375 374.214844 L 0.785156 374.214844 Z M 0.785156 0 " clip-rule="nonzero"/></clipPath><clipPath id="4ab5895293"><path d="M 187.894531 0 C 84.554688 0 0.785156 83.769531 0.785156 187.105469 C 0.785156 290.445312 84.554688 374.214844 187.894531 374.214844 C 291.230469 374.214844 375 290.445312 375 187.105469 C 375 83.769531 291.230469 0 187.894531 0 Z M 187.894531 0 " clip-rule="nonzero"/></clipPath><clipPath id="609d2449f3"><path d="M 0.785156 0 L 375 0 L 375 374.214844 L 0.785156 374.214844 Z M 0.785156 0 " clip-rule="nonzero"/></clipPath><clipPath id="65e06ab5f2"><path d="M 187.894531 0 C 84.554688 0 0.785156 83.769531 0.785156 187.105469 C 0.785156 290.445312 84.554688 374.214844 187.894531 374.214844 C 291.230469 374.214844 375 290.445312 375 187.105469 C 375 83.769531 291.230469 0 187.894531 0 Z M 187.894531 0 " clip-rule="nonzero"/></clipPath><clipPath id="9439e2db59"><rect x="0" width="375" y="0" height="375"/></clipPath><clipPath id="684953732f"><path d="M 107.292969 29.296875 L 230.292969 29.296875 L 230.292969 246 L 107.292969 246 Z M 107.292969 29.296875 " clip-rule="nonzero"/></clipPath><clipPath id="ece52bd5a0"><path d="M 198 198.8125 L 282 198.8125 L 282 283 L 198 283 Z M 198 198.8125 " clip-rule="nonzero"/></clipPath><clipPath id="9b54afdd22"><path d="M 257 262 L 305.269531 262 L 305.269531 310 L 257 310 Z M 257 262 " clip-rule="nonzero"/></clipPath><clipPath id="70eca12b5a"><path d="M 155.269531 256 L 223 256 L 223 323.3125 L 155.269531 323.3125 Z M 155.269531 256 " clip-rule="nonzero"/></clipPath></defs><g clip-path="url(#2ae90d856e)"><g clip-path="url(#4ab5895293)"><g><g clip-path="url(#9439e2db59)"><g clip-path="url(#609d2449f3)"><g clip-path="url(#65e06ab5f2)"><path fill="#312f84" d="M 0.785156 0 L 375 0 L 375 374.214844 L 0.785156 374.214844 Z M 0.785156 0 " fill-opacity="1" fill-rule="nonzero"/></g></g></g></g></g></g><g clip-path="url(#684953732f)"><path fill="#8282db" d="M 136.148438 244.914062 C 128.667969 244.011719 119.335938 242.351562 115.410156 241.21875 C 108.777344 239.304688 108.234375 238.714844 107.746094 232.875 C 107.320312 227.75 107.832031 226.429688 110.527344 225.726562 C 113.800781 224.871094 113.800781 224.8125 110.640625 219.628906 C 108.886719 216.753906 107.449219 213.152344 107.445312 211.625 C 107.441406 207.527344 114.796875 199.503906 122.945312 194.726562 C 133.5 188.542969 134.96875 186.285156 131.691406 181.285156 C 127.875 175.457031 128.28125 174.042969 134.664062 171 C 141.84375 167.574219 149.175781 151.574219 149.519531 138.574219 L 149.75 129.941406 L 140.078125 128.203125 C 130.597656 126.5 125.839844 122.785156 128.214844 118.945312 C 128.785156 118.015625 134.527344 114.601562 140.96875 111.359375 L 152.679688 105.460938 L 147.898438 102.484375 C 130.304688 91.542969 124.140625 70.625 132.9375 51.734375 C 140.191406 36.160156 156.070312 29.335938 170.621094 29.695312 C 200.796875 30.4375 207.796875 47.921875 207.769531 68.265625 C 207.707031 84.242188 200.589844 96.996094 188.015625 103.667969 C 185.207031 105.160156 186.3125 106.132812 196.828125 111.429688 C 207.730469 116.917969 208.808594 117.90625 208.335938 121.976562 C 207.859375 126.136719 207.046875 126.578125 197.273438 128.023438 L 186.726562 129.585938 L 187.421875 138.808594 C 188.441406 152.34375 195.789062 167.5625 202.957031 170.980469 C 209.066406 173.894531 210.152344 177.074219 206.160156 180.386719 C 201.386719 184.347656 203.40625 188.28125 213.296875 194.289062 C 218.589844 197.503906 224.316406 201.675781 226.015625 203.558594 C 229.992188 207.949219 229.980469 215.886719 226.015625 220.285156 C 223.351562 223.230469 223.25 223.949219 225.324219 225.261719 C 229.410156 226.75 230.207031 228.6875 230.234375 232.449219 C 230.234375 238.921875 227.546875 240.46875 211.152344 243.429688 C 197.082031 245.972656 152.316406 246.859375 136.164062 244.914062 Z M 136.148438 244.914062 " fill-opacity="1" fill-rule="nonzero"/></g><g clip-path="url(#ece52bd5a0)"><path fill="#8282db" d="M 281.609375 232.3125 L 277.226562 220.183594 L 268.414062 223.367188 C 266.101562 219.472656 263.214844 216.480469 259.78125 213.960938 L 263.90625 205.253906 L 252.242188 199.796875 L 248 208.609375 C 243.867188 207.582031 239.496094 207.367188 235.023438 208.074219 L 231.675781 198.8125 L 219.546875 203.195312 L 222.894531 212.460938 C 219.421875 214.621094 216.058594 217.644531 213.542969 221.070312 L 204.855469 216.9375 L 199.410156 228.601562 L 208.160156 232.613281 C 207.132812 236.738281 206.84375 240.882812 207.550781 245.355469 L 198.175781 248.742188 L 202.558594 260.871094 L 211.9375 257.484375 C 214.246094 261.378906 217.195312 264.542969 220.621094 267.058594 L 216.527344 275.867188 L 228.210938 281.367188 L 232.1875 272.667969 C 236.3125 273.691406 240.828125 273.878906 244.882812 273.316406 L 248.105469 282.242188 L 260.234375 277.863281 L 257.011719 268.941406 C 260.902344 266.625 264.125 263.65625 266.644531 260.230469 L 275.46875 264.316406 L 280.980469 252.632812 L 272.214844 248.425781 C 273.238281 244.300781 273.503906 239.96875 272.792969 235.496094 L 281.605469 232.3125 Z M 245.402344 254.257812 C 237.859375 256.984375 229.53125 253.078125 226.804688 245.53125 C 224.078125 237.988281 227.988281 229.660156 235.53125 226.933594 C 243.078125 224.207031 251.40625 228.113281 254.128906 235.660156 C 256.855469 243.207031 252.949219 251.53125 245.40625 254.257812 Z M 245.402344 254.257812 " fill-opacity="1" fill-rule="nonzero"/></g><g clip-path="url(#9b54afdd22)"><path fill="#8282db" d="M 304.660156 291.582031 L 305.265625 284.394531 L 300.066406 283.957031 C 299.808594 281.347656 299.027344 279.332031 297.875 277.257812 L 301.988281 273.847656 L 297.347656 268.382812 L 293.019531 271.859375 C 291.164062 270.375 289.480469 269.300781 286.441406 268.566406 L 286.894531 263.199219 L 279.195312 262.546875 L 278.742188 267.917969 C 277.160156 268.261719 274.457031 268.984375 272.382812 270.132812 L 269.136719 266.03125 L 263.757812 270.683594 L 267.3125 274.679688 C 265.828125 276.527344 264.78125 278.390625 264.089844 280.917969 L 258.554688 280.449219 L 257.949219 287.636719 L 263.484375 288.105469 C 263.695312 291.222656 264.5 292.980469 265.648438 295.054688 L 261.515625 298.601562 L 266.15625 304.132812 L 269.808594 300.625 C 271.660156 302.105469 274.203125 303.289062 275.703125 303.890625 L 275.292969 308.746094 L 282.992188 309.398438 L 283.402344 304.542969 C 286.523438 304.328125 288.363281 303.53125 290.4375 302.382812 L 294.023438 306.515625 L 299.570312 301.878906 L 296.128906 297.632812 C 297.609375 295.78125 298.722656 294.183594 299.457031 291.140625 Z M 281.1875 294.417969 C 276.726562 294.039062 273.417969 290.117188 273.792969 285.660156 C 274.171875 281.199219 278.089844 277.886719 282.550781 278.265625 C 287.011719 278.640625 290.320312 282.5625 289.945312 287.023438 C 289.570312 291.484375 285.648438 294.792969 281.1875 294.417969 Z M 281.1875 294.417969 " fill-opacity="1" fill-rule="nonzero"/></g><g clip-path="url(#70eca12b5a)"><path fill="#8282db" d="M 222.351562 295.308594 L 222.351562 285.027344 L 215.148438 285.027344 C 214.476562 281.242188 213.132812 278.234375 211.261719 275.4375 L 216.660156 269.933594 L 209.457031 262.683594 L 203.558594 268.054688 C 200.765625 266.183594 197.464844 264.8125 193.679688 264.140625 L 193.679688 256.355469 L 183.398438 256.355469 L 183.398438 264.144531 C 180.152344 264.8125 177.359375 266.160156 174.570312 268.027344 L 169.441406 262.625 L 162.371094 269.832031 L 167.847656 275.445312 C 165.976562 278.234375 164.703125 281.242188 164.03125 285.027344 L 155.269531 285.027344 L 155.269531 295.308594 L 164.03125 295.308594 C 164.703125 298.554688 166.046875 301.636719 167.914062 304.425781 L 162.507812 309.703125 L 169.714844 316.84375 L 174.574219 311.40625 C 177.363281 313.273438 180.152344 314.585938 183.398438 315.257812 L 183.398438 323.441406 L 193.679688 323.441406 L 193.679688 315.257812 C 197.464844 314.585938 200.765625 313.242188 203.554688 311.375 L 209.207031 316.777344 L 216.535156 309.574219 L 211.199219 304.429688 C 213.066406 301.636719 214.476562 298.554688 215.144531 295.308594 Z M 189.761719 301.234375 C 183.425781 301.234375 178.285156 296.101562 178.285156 289.761719 C 178.285156 283.425781 183.425781 278.285156 189.761719 278.285156 C 196.101562 278.285156 201.238281 283.425781 201.238281 289.761719 C 201.238281 296.101562 196.101562 301.234375 189.761719 301.234375 Z M 189.761719 301.234375 " fill-opacity="1" fill-rule="nonzero"/></g></svg>