<svg xmlns="http://www.w3.org/2000/svg" xmlns:xlink="http://www.w3.org/1999/xlink" width="500" zoomAndPan="magnify" viewBox="0 0 375 374.999991" height="500" preserveAspectRatio="xMidYMid meet" version="1.0"><defs><clipPath id="36eedee0ac"><path d="M 33 12.386719 L 342 12.386719 L 342 362.636719 L 33 362.636719 Z M 33 12.386719 " clip-rule="nonzero"/></clipPath><clipPath id="e5eba768ba"><path d="M 155.039062 187.5 L 266.789062 187.5 L 266.789062 337.5 L 155.039062 337.5 Z M 155.039062 187.5 " clip-rule="nonzero"/></clipPath></defs><g clip-path="url(#36eedee0ac)"><path fill="#312f84" d="M 177.589844 72.992188 C 196.820312 85.230469 210.226562 105.625 212.554688 128.933594 C 220.132812 132.429688 228.871094 134.761719 238.195312 134.761719 C 271.996094 134.761719 299.382812 107.375 299.382812 73.574219 C 299.382812 39.777344 271.996094 12.386719 238.195312 12.386719 C 204.980469 12.96875 177.589844 39.777344 177.589844 72.992188 Z M 137.382812 197.699219 C 171.179688 197.699219 198.570312 170.308594 198.570312 136.511719 C 198.570312 102.710938 171.179688 75.324219 137.382812 75.324219 C 103.582031 75.324219 76.195312 102.710938 76.195312 136.511719 C 76.195312 170.308594 103.582031 197.699219 137.382812 197.699219 Z M 163.023438 201.777344 L 111.160156 201.777344 C 68.035156 201.777344 33.070312 236.742188 33.070312 279.863281 L 33.070312 344.546875 L 37.152344 345.714844 C 77.941406 358.535156 114.074219 362.613281 143.210938 362.613281 C 200.316406 362.613281 233.535156 346.296875 235.867188 345.132812 L 239.945312 342.800781 L 240.527344 342.800781 L 240.527344 279.863281 C 241.109375 236.742188 206.144531 201.777344 163.023438 201.777344 Z M 263.835938 138.839844 L 212.554688 138.839844 C 211.972656 159.238281 203.230469 177.882812 189.246094 191.289062 C 227.707031 202.941406 255.679688 237.90625 255.679688 279.863281 L 255.679688 299.09375 C 306.375 297.347656 335.515625 282.777344 337.261719 282.195312 L 341.339844 279.863281 L 341.925781 279.863281 L 341.925781 216.929688 C 341.925781 173.804688 306.960938 138.839844 263.835938 138.839844 Z M 263.835938 138.839844 " fill-opacity="1" fill-rule="nonzero"/></g><g clip-path="url(#e5eba768ba)"><path fill="#8282db" d="M 206.28125 337.664062 C 213.359375 337.664062 219.089844 331.929688 219.089844 324.855469 L 219.089844 286.421875 C 219.089844 285.28125 218.894531 284.195312 218.609375 283.144531 L 228.191406 273.5625 C 228.367188 273.566406 228.527344 273.613281 228.699219 273.613281 L 257.523438 273.613281 C 262.824219 273.613281 267.128906 269.308594 267.128906 264.003906 L 267.128906 235.183594 C 267.128906 229.878906 262.824219 225.574219 257.523438 225.574219 L 228.699219 225.574219 C 228.527344 225.574219 228.367188 225.613281 228.199219 225.625 L 213.101562 210.527344 L 213.101562 193.964844 C 213.101562 190.429688 210.234375 187.558594 206.699219 187.558594 L 187.480469 187.558594 C 183.945312 187.558594 181.078125 190.429688 181.078125 193.964844 L 181.078125 213.179688 C 181.078125 216.714844 183.945312 219.585938 187.480469 219.585938 L 204.046875 219.585938 L 219.144531 234.683594 C 219.136719 234.847656 219.089844 235.007812 219.089844 235.183594 L 219.089844 264.003906 C 219.089844 264.171875 219.128906 264.332031 219.144531 264.5 L 209.554688 274.085938 C 208.503906 273.804688 207.421875 273.613281 206.28125 273.613281 L 167.851562 273.613281 C 160.773438 273.613281 155.039062 279.34375 155.039062 286.421875 L 155.039062 324.855469 C 155.039062 331.929688 160.773438 337.664062 167.851562 337.664062 Z M 206.28125 337.664062 " fill-opacity="1" fill-rule="nonzero"/></g></svg>