<svg xmlns="http://www.w3.org/2000/svg" xmlns:xlink="http://www.w3.org/1999/xlink" width="500" zoomAndPan="magnify" viewBox="0 0 375 374.999991" height="500" preserveAspectRatio="xMidYMid meet" version="1.0"><defs><clipPath id="4b86cabdb7"><path d="M 3 0 L 375 0 L 375 371.25 L 3 371.25 Z M 3 0 " clip-rule="nonzero"/></clipPath></defs><path fill="#312f84" d="M 189.328125 11.042969 C 285.839844 11.042969 364.078125 89.28125 364.078125 185.792969 C 364.078125 282.308594 285.839844 360.546875 189.328125 360.546875 L 14.574219 360.546875 L 65.753906 309.367188 C 34.132812 277.734375 14.574219 234.046875 14.574219 185.792969 C 14.574219 89.28125 92.8125 11.042969 189.328125 11.042969 Z M 189.328125 11.042969 " fill-opacity="1" fill-rule="nonzero"/><path fill="#ebf3fc" d="M 298.546875 185.792969 C 298.546875 186.511719 298.511719 187.222656 298.441406 187.9375 C 298.371094 188.648438 298.265625 189.355469 298.125 190.054688 C 297.988281 190.757812 297.8125 191.453125 297.605469 192.136719 C 297.398438 192.820312 297.15625 193.492188 296.882812 194.152344 C 296.609375 194.816406 296.304688 195.460938 295.964844 196.09375 C 295.628906 196.722656 295.261719 197.335938 294.863281 197.929688 C 294.46875 198.527344 294.042969 199.097656 293.585938 199.652344 C 293.132812 200.207031 292.652344 200.734375 292.148438 201.242188 C 291.640625 201.746094 291.113281 202.226562 290.558594 202.679688 C 290.007812 203.132812 289.433594 203.558594 288.835938 203.957031 C 288.242188 204.355469 287.628906 204.722656 287 205.058594 C 286.367188 205.398438 285.722656 205.703125 285.0625 205.976562 C 284.398438 206.25 283.726562 206.492188 283.042969 206.699219 C 282.359375 206.90625 281.664062 207.078125 280.964844 207.21875 C 280.261719 207.359375 279.554688 207.464844 278.84375 207.535156 C 278.132812 207.605469 277.417969 207.640625 276.703125 207.640625 C 275.988281 207.640625 275.273438 207.605469 274.5625 207.535156 C 273.847656 207.464844 273.140625 207.359375 272.441406 207.21875 C 271.738281 207.078125 271.046875 206.90625 270.359375 206.699219 C 269.675781 206.492188 269.003906 206.25 268.34375 205.976562 C 267.683594 205.703125 267.035156 205.398438 266.40625 205.058594 C 265.773438 204.722656 265.160156 204.355469 264.566406 203.957031 C 263.972656 203.558594 263.398438 203.132812 262.84375 202.679688 C 262.292969 202.226562 261.761719 201.746094 261.257812 201.242188 C 260.75 200.734375 260.269531 200.207031 259.816406 199.652344 C 259.363281 199.097656 258.9375 198.527344 258.539062 197.929688 C 258.140625 197.335938 257.773438 196.722656 257.4375 196.09375 C 257.101562 195.460938 256.792969 194.816406 256.519531 194.152344 C 256.246094 193.492188 256.007812 192.820312 255.796875 192.136719 C 255.589844 191.453125 255.417969 190.757812 255.277344 190.054688 C 255.136719 189.355469 255.035156 188.648438 254.964844 187.9375 C 254.894531 187.222656 254.859375 186.511719 254.859375 185.792969 C 254.859375 185.078125 254.894531 184.367188 254.964844 183.652344 C 255.035156 182.941406 255.136719 182.234375 255.277344 181.535156 C 255.417969 180.832031 255.589844 180.136719 255.796875 179.453125 C 256.007812 178.769531 256.246094 178.097656 256.519531 177.4375 C 256.792969 176.773438 257.101562 176.128906 257.4375 175.496094 C 257.773438 174.867188 258.140625 174.253906 258.539062 173.660156 C 258.9375 173.0625 259.363281 172.492188 259.816406 171.9375 C 260.269531 171.382812 260.75 170.855469 261.257812 170.347656 C 261.761719 169.84375 262.292969 169.363281 262.84375 168.910156 C 263.398438 168.457031 263.972656 168.03125 264.566406 167.632812 C 265.160156 167.234375 265.773438 166.867188 266.40625 166.53125 C 267.035156 166.191406 267.683594 165.886719 268.34375 165.613281 C 269.003906 165.339844 269.675781 165.097656 270.359375 164.890625 C 271.046875 164.683594 271.738281 164.511719 272.441406 164.371094 C 273.140625 164.230469 273.847656 164.125 274.5625 164.054688 C 275.273438 163.984375 275.988281 163.949219 276.703125 163.949219 C 277.417969 163.949219 278.132812 163.984375 278.84375 164.054688 C 279.554688 164.125 280.261719 164.230469 280.964844 164.371094 C 281.664062 164.511719 282.359375 164.683594 283.042969 164.890625 C 283.726562 165.097656 284.398438 165.339844 285.0625 165.613281 C 285.722656 165.886719 286.367188 166.191406 287 166.53125 C 287.628906 166.867188 288.242188 167.234375 288.835938 167.632812 C 289.433594 168.03125 290.007812 168.457031 290.558594 168.910156 C 291.113281 169.363281 291.640625 169.84375 292.148438 170.347656 C 292.652344 170.855469 293.132812 171.382812 293.585938 171.9375 C 294.042969 172.492188 294.46875 173.0625 294.863281 173.660156 C 295.261719 174.253906 295.628906 174.867188 295.964844 175.496094 C 296.304688 176.128906 296.609375 176.773438 296.882812 177.4375 C 297.15625 178.097656 297.398438 178.769531 297.605469 179.453125 C 297.8125 180.136719 297.988281 180.832031 298.125 181.535156 C 298.265625 182.234375 298.371094 182.941406 298.441406 183.652344 C 298.511719 184.367188 298.546875 185.078125 298.546875 185.792969 Z M 298.546875 185.792969 " fill-opacity="1" fill-rule="nonzero"/><path fill="#ebf3fc" d="M 211.171875 185.792969 C 211.171875 186.511719 211.136719 187.222656 211.066406 187.9375 C 210.996094 188.648438 210.890625 189.355469 210.75 190.054688 C 210.609375 190.757812 210.4375 191.453125 210.230469 192.136719 C 210.023438 192.820312 209.78125 193.492188 209.507812 194.152344 C 209.234375 194.816406 208.929688 195.460938 208.589844 196.09375 C 208.253906 196.722656 207.886719 197.335938 207.488281 197.929688 C 207.089844 198.527344 206.664062 199.097656 206.210938 199.652344 C 205.757812 200.207031 205.277344 200.734375 204.773438 201.242188 C 204.265625 201.746094 203.738281 202.226562 203.183594 202.679688 C 202.628906 203.132812 202.058594 203.558594 201.460938 203.957031 C 200.867188 204.355469 200.253906 204.722656 199.625 205.058594 C 198.992188 205.398438 198.347656 205.703125 197.683594 205.976562 C 197.023438 206.25 196.351562 206.492188 195.667969 206.699219 C 194.984375 206.90625 194.289062 207.078125 193.585938 207.21875 C 192.886719 207.359375 192.179688 207.464844 191.46875 207.535156 C 190.753906 207.605469 190.042969 207.640625 189.328125 207.640625 C 188.609375 207.640625 187.898438 207.605469 187.183594 207.535156 C 186.472656 207.464844 185.765625 207.359375 185.066406 207.21875 C 184.363281 207.078125 183.667969 206.90625 182.984375 206.699219 C 182.300781 206.492188 181.628906 206.25 180.96875 205.976562 C 180.304688 205.703125 179.660156 205.398438 179.027344 205.058594 C 178.398438 204.722656 177.785156 204.355469 177.191406 203.957031 C 176.59375 203.558594 176.023438 203.132812 175.46875 202.679688 C 174.914062 202.226562 174.386719 201.746094 173.878906 201.242188 C 173.375 200.734375 172.894531 200.207031 172.441406 199.652344 C 171.988281 199.097656 171.5625 198.527344 171.164062 197.929688 C 170.765625 197.335938 170.398438 196.722656 170.0625 196.09375 C 169.722656 195.460938 169.417969 194.816406 169.144531 194.152344 C 168.871094 193.492188 168.628906 192.820312 168.421875 192.136719 C 168.214844 191.453125 168.042969 190.757812 167.902344 190.054688 C 167.761719 189.355469 167.65625 188.648438 167.585938 187.9375 C 167.515625 187.222656 167.480469 186.511719 167.480469 185.792969 C 167.480469 185.078125 167.515625 184.367188 167.585938 183.652344 C 167.65625 182.941406 167.761719 182.234375 167.902344 181.535156 C 168.042969 180.832031 168.214844 180.136719 168.421875 179.453125 C 168.628906 178.769531 168.871094 178.097656 169.144531 177.4375 C 169.417969 176.773438 169.722656 176.128906 170.0625 175.496094 C 170.398438 174.867188 170.765625 174.253906 171.164062 173.660156 C 171.5625 173.0625 171.988281 172.492188 172.441406 171.9375 C 172.894531 171.382812 173.375 170.855469 173.878906 170.347656 C 174.386719 169.84375 174.914062 169.363281 175.46875 168.910156 C 176.023438 168.457031 176.59375 168.03125 177.191406 167.632812 C 177.785156 167.234375 178.398438 166.867188 179.027344 166.53125 C 179.660156 166.191406 180.304688 165.886719 180.96875 165.613281 C 181.628906 165.339844 182.300781 165.097656 182.984375 164.890625 C 183.667969 164.683594 184.363281 164.511719 185.066406 164.371094 C 185.765625 164.230469 186.472656 164.125 187.183594 164.054688 C 187.898438 163.984375 188.609375 163.949219 189.328125 163.949219 C 190.042969 163.949219 190.753906 163.984375 191.46875 164.054688 C 192.179688 164.125 192.886719 164.230469 193.585938 164.371094 C 194.289062 164.511719 194.984375 164.683594 195.667969 164.890625 C 196.351562 165.097656 197.023438 165.339844 197.683594 165.613281 C 198.347656 165.886719 198.992188 166.191406 199.625 166.53125 C 200.253906 166.867188 200.867188 167.234375 201.460938 167.632812 C 202.058594 168.03125 202.628906 168.457031 203.183594 168.910156 C 203.738281 169.363281 204.265625 169.84375 204.773438 170.347656 C 205.277344 170.855469 205.757812 171.382812 206.210938 171.9375 C 206.664062 172.492188 207.089844 173.0625 207.488281 173.660156 C 207.886719 174.253906 208.253906 174.867188 208.589844 175.496094 C 208.929688 176.128906 209.234375 176.773438 209.507812 177.4375 C 209.78125 178.097656 210.023438 178.769531 210.230469 179.453125 C 210.4375 180.136719 210.609375 180.832031 210.75 181.535156 C 210.890625 182.234375 210.996094 182.941406 211.066406 183.652344 C 211.136719 184.367188 211.171875 185.078125 211.171875 185.792969 Z M 211.171875 185.792969 " fill-opacity="1" fill-rule="nonzero"/><path fill="#ebf3fc" d="M 123.792969 185.792969 C 123.792969 186.511719 123.757812 187.222656 123.6875 187.9375 C 123.617188 188.648438 123.515625 189.355469 123.375 190.054688 C 123.234375 190.757812 123.0625 191.453125 122.855469 192.136719 C 122.644531 192.820312 122.40625 193.492188 122.132812 194.152344 C 121.859375 194.816406 121.550781 195.460938 121.214844 196.09375 C 120.878906 196.722656 120.511719 197.335938 120.113281 197.929688 C 119.714844 198.527344 119.289062 199.097656 118.835938 199.652344 C 118.382812 200.207031 117.902344 200.734375 117.394531 201.242188 C 116.890625 201.746094 116.359375 202.226562 115.808594 202.679688 C 115.253906 203.132812 114.679688 203.558594 114.085938 203.957031 C 113.492188 204.355469 112.878906 204.722656 112.246094 205.058594 C 111.617188 205.398438 110.972656 205.703125 110.308594 205.976562 C 109.648438 206.25 108.976562 206.492188 108.292969 206.699219 C 107.605469 206.90625 106.914062 207.078125 106.210938 207.21875 C 105.511719 207.359375 104.804688 207.464844 104.089844 207.535156 C 103.378906 207.605469 102.664062 207.640625 101.949219 207.640625 C 101.234375 207.640625 100.519531 207.605469 99.808594 207.535156 C 99.097656 207.464844 98.390625 207.359375 97.6875 207.21875 C 96.988281 207.078125 96.292969 206.90625 95.609375 206.699219 C 94.925781 206.492188 94.253906 206.25 93.589844 205.976562 C 92.929688 205.703125 92.285156 205.398438 91.652344 205.058594 C 91.023438 204.722656 90.410156 204.355469 89.816406 203.957031 C 89.21875 203.558594 88.644531 203.132812 88.09375 202.679688 C 87.539062 202.226562 87.011719 201.746094 86.503906 201.242188 C 86 200.734375 85.519531 200.207031 85.066406 199.652344 C 84.609375 199.097656 84.183594 198.527344 83.789062 197.929688 C 83.390625 197.335938 83.023438 196.722656 82.6875 196.09375 C 82.347656 195.460938 82.042969 194.816406 81.769531 194.152344 C 81.496094 193.492188 81.253906 192.820312 81.046875 192.136719 C 80.839844 191.453125 80.664062 190.757812 80.527344 190.054688 C 80.386719 189.355469 80.28125 188.648438 80.210938 187.9375 C 80.140625 187.222656 80.105469 186.511719 80.105469 185.792969 C 80.105469 185.078125 80.140625 184.367188 80.210938 183.652344 C 80.28125 182.941406 80.386719 182.234375 80.527344 181.535156 C 80.664062 180.832031 80.839844 180.136719 81.046875 179.453125 C 81.253906 178.769531 81.496094 178.097656 81.769531 177.4375 C 82.042969 176.773438 82.347656 176.128906 82.6875 175.496094 C 83.023438 174.867188 83.390625 174.253906 83.789062 173.660156 C 84.183594 173.0625 84.609375 172.492188 85.066406 171.9375 C 85.519531 171.382812 86 170.855469 86.503906 170.347656 C 87.011719 169.84375 87.539062 169.363281 88.09375 168.910156 C 88.644531 168.457031 89.21875 168.03125 89.816406 167.632812 C 90.410156 167.234375 91.023438 166.867188 91.652344 166.53125 C 92.285156 166.191406 92.929688 165.886719 93.589844 165.613281 C 94.253906 165.339844 94.925781 165.097656 95.609375 164.890625 C 96.292969 164.683594 96.988281 164.511719 97.6875 164.371094 C 98.390625 164.230469 99.097656 164.125 99.808594 164.054688 C 100.519531 163.984375 101.234375 163.949219 101.949219 163.949219 C 102.664062 163.949219 103.378906 163.984375 104.089844 164.054688 C 104.804688 164.125 105.511719 164.230469 106.210938 164.371094 C 106.914062 164.511719 107.605469 164.683594 108.292969 164.890625 C 108.976562 165.097656 109.648438 165.339844 110.308594 165.613281 C 110.972656 165.886719 111.617188 166.191406 112.246094 166.53125 C 112.878906 166.867188 113.492188 167.234375 114.085938 167.632812 C 114.679688 168.03125 115.253906 168.457031 115.808594 168.910156 C 116.359375 169.363281 116.890625 169.84375 117.394531 170.347656 C 117.902344 170.855469 118.382812 171.382812 118.835938 171.9375 C 119.289062 172.492188 119.714844 173.0625 120.113281 173.660156 C 120.511719 174.253906 120.878906 174.867188 121.214844 175.496094 C 121.550781 176.128906 121.859375 176.773438 122.132812 177.4375 C 122.40625 178.097656 122.644531 178.769531 122.855469 179.453125 C 123.0625 180.136719 123.234375 180.832031 123.375 181.535156 C 123.515625 182.234375 123.617188 182.941406 123.6875 183.652344 C 123.757812 184.367188 123.792969 185.078125 123.792969 185.792969 Z M 123.792969 185.792969 " fill-opacity="1" fill-rule="nonzero"/><g clip-path="url(#4b86cabdb7)"><path fill="#8282db" d="M 189.328125 371.46875 L 14.574219 371.46875 C 4.871094 371.46875 -0.0195312 359.695312 6.851562 352.824219 L 50.535156 309.140625 C 20.21875 275.121094 3.652344 231.734375 3.652344 185.792969 C 3.652344 83.179688 86.695312 0.121094 189.328125 0.121094 C 291.941406 0.121094 375 83.164062 375 185.792969 C 375 288.410156 291.957031 371.46875 189.328125 371.46875 Z M 40.941406 349.625 L 189.328125 349.625 C 279.664062 349.625 353.15625 276.132812 353.15625 185.792969 C 353.15625 95.457031 279.660156 21.964844 189.328125 21.964844 C 98.992188 21.964844 25.496094 95.457031 25.496094 185.792969 C 25.496094 229.554688 42.539062 270.695312 73.480469 301.640625 C 77.746094 305.90625 77.746094 312.820312 73.480469 317.085938 Z M 40.941406 349.625 " fill-opacity="1" fill-rule="nonzero"/></g></svg>