<svg xmlns="http://www.w3.org/2000/svg" xmlns:xlink="http://www.w3.org/1999/xlink" width="500" zoomAndPan="magnify" viewBox="0 0 375 374.999991" height="500" preserveAspectRatio="xMidYMid meet" version="1.0"><defs><clipPath id="3d81e55fa4"><path d="M 302.902344 150.957031 L 343 150.957031 L 343 165.230469 L 302.902344 165.230469 Z M 302.902344 150.957031 " clip-rule="nonzero"/></clipPath><clipPath id="4d16e73738"><path d="M 302.902344 189 L 343 189 L 343 213 L 302.902344 213 Z M 302.902344 189 " clip-rule="nonzero"/></clipPath><clipPath id="e9d597a38c"><path d="M 302.902344 207 L 343 207 L 343 236 L 302.902344 236 Z M 302.902344 207 " clip-rule="nonzero"/></clipPath><clipPath id="20161f59a5"><path d="M 302.902344 161 L 343 161 L 343 182 L 302.902344 182 Z M 302.902344 161 " clip-rule="nonzero"/></clipPath><clipPath id="2e84262f64"><path d="M 335 201 L 350.566406 201 L 350.566406 217 L 335 217 Z M 335 201 " clip-rule="nonzero"/></clipPath><clipPath id="c51f45086f"><path d="M 335 224 L 350.566406 224 L 350.566406 240.652344 L 335 240.652344 Z M 335 224 " clip-rule="nonzero"/></clipPath><clipPath id="e23bdc3e94"><path d="M 335 156.691406 L 350.566406 156.691406 L 350.566406 172.34375 L 335 172.34375 Z M 335 156.691406 " clip-rule="nonzero"/></clipPath><clipPath id="120a1ce44f"><path d="M 31 150.957031 L 71.621094 150.957031 L 71.621094 165.230469 L 31 165.230469 Z M 31 150.957031 " clip-rule="nonzero"/></clipPath><clipPath id="fcf0754e89"><path d="M 31 189 L 71.621094 189 L 71.621094 213 L 31 213 Z M 31 189 " clip-rule="nonzero"/></clipPath><clipPath id="cbd267cae6"><path d="M 31 207 L 71.621094 207 L 71.621094 236 L 31 236 Z M 31 207 " clip-rule="nonzero"/></clipPath><clipPath id="60d2658739"><path d="M 31 161 L 71.621094 161 L 71.621094 182 L 31 182 Z M 31 161 " clip-rule="nonzero"/></clipPath><clipPath id="ce6e103cb2"><path d="M 23.574219 201 L 39 201 L 39 217 L 23.574219 217 Z M 23.574219 201 " clip-rule="nonzero"/></clipPath><clipPath id="556f420893"><path d="M 23.574219 224 L 39 224 L 39 240.652344 L 23.574219 240.652344 Z M 23.574219 224 " clip-rule="nonzero"/></clipPath><clipPath id="4cf6c63903"><path d="M 23.574219 156.691406 L 39 156.691406 L 39 172.34375 L 23.574219 172.34375 Z M 23.574219 156.691406 " clip-rule="nonzero"/></clipPath><clipPath id="0233cdace0"><path d="M 38.65625 37.53125 L 336.550781 37.53125 L 336.550781 132.5 L 38.65625 132.5 Z M 38.65625 37.53125 " clip-rule="nonzero"/></clipPath></defs><g clip-path="url(#3d81e55fa4)"><path fill="#333594" d="M 288.125 165.121094 L 306.488281 165.121094 C 306.882812 165.121094 307.199219 164.800781 307.199219 164.40625 L 307.199219 139.667969 C 307.199219 139.269531 307.523438 138.949219 307.917969 138.949219 L 342.15625 138.949219 C 342.550781 138.949219 342.867188 138.632812 342.867188 138.238281 L 342.867188 133.640625 C 342.867188 133.246094 342.550781 132.921875 342.15625 132.921875 L 301.890625 132.921875 C 301.496094 132.921875 301.171875 133.246094 301.171875 133.640625 L 301.171875 158.382812 C 301.171875 158.777344 300.855469 159.09375 300.460938 159.09375 L 285.066406 159.09375 C 286.21875 161.023438 287.242188 163.035156 288.125 165.121094 " fill-opacity="1" fill-rule="nonzero"/></g><g clip-path="url(#4d16e73738)"><path fill="#333594" d="M 315.097656 212.246094 L 342.15625 212.246094 C 342.550781 212.246094 342.867188 211.921875 342.867188 211.527344 L 342.867188 206.933594 C 342.867188 206.535156 342.550781 206.21875 342.15625 206.21875 L 321.125 206.21875 C 320.730469 206.21875 320.40625 205.898438 320.40625 205.507812 L 320.40625 189.75 C 320.40625 189.355469 320.089844 189.039062 319.695312 189.039062 L 291.8125 189.039062 C 291.625 191.082031 291.304688 193.097656 290.871094 195.0625 L 313.667969 195.0625 C 314.0625 195.0625 314.378906 195.378906 314.378906 195.773438 L 314.378906 211.527344 C 314.378906 211.921875 314.703125 212.246094 315.097656 212.246094 " fill-opacity="1" fill-rule="nonzero"/></g><g clip-path="url(#e9d597a38c)"><path fill="#333594" d="M 296.34375 235.792969 L 342.15625 235.792969 C 342.550781 235.792969 342.867188 235.46875 342.867188 235.074219 L 342.867188 230.476562 C 342.867188 230.089844 342.550781 229.765625 342.15625 229.765625 L 302.375 229.765625 C 301.976562 229.765625 301.65625 229.449219 301.65625 229.054688 L 301.65625 207.90625 C 301.65625 207.507812 301.339844 207.191406 300.945312 207.191406 L 286.457031 207.191406 C 285.363281 209.292969 284.121094 211.304688 282.75 213.21875 L 294.914062 213.21875 C 295.3125 213.21875 295.628906 213.535156 295.628906 213.929688 L 295.628906 235.074219 C 295.628906 235.46875 295.949219 235.792969 296.34375 235.792969 " fill-opacity="1" fill-rule="nonzero"/></g><g clip-path="url(#20161f59a5)"><path fill="#333594" d="M 291.929688 181.210938 L 319.695312 181.210938 C 320.089844 181.210938 320.40625 180.890625 320.40625 180.5 L 320.40625 168.164062 C 320.40625 167.769531 320.730469 167.449219 321.125 167.449219 L 342.15625 167.449219 C 342.550781 167.449219 342.867188 167.132812 342.867188 166.738281 L 342.867188 162.140625 C 342.867188 161.746094 342.550781 161.421875 342.15625 161.421875 L 315.097656 161.421875 C 314.703125 161.421875 314.378906 161.746094 314.378906 162.140625 L 314.378906 174.472656 C 314.378906 174.871094 314.0625 175.1875 313.667969 175.1875 L 291.171875 175.1875 C 291.546875 177.152344 291.800781 179.167969 291.929688 181.210938 " fill-opacity="1" fill-rule="nonzero"/></g><g clip-path="url(#2e84262f64)"><path fill="#acd8f3" d="M 335.171875 208.964844 C 335.171875 204.71875 338.621094 201.273438 342.867188 201.273438 C 347.117188 201.273438 350.566406 204.71875 350.566406 208.964844 C 350.566406 213.214844 347.117188 216.660156 342.867188 216.660156 C 338.621094 216.660156 335.171875 213.214844 335.171875 208.964844 " fill-opacity="1" fill-rule="nonzero"/></g><g clip-path="url(#c51f45086f)"><path fill="#acd8f3" d="M 335.171875 232.601562 C 335.171875 228.355469 338.621094 224.910156 342.867188 224.910156 C 347.117188 224.910156 350.566406 228.355469 350.566406 232.601562 C 350.566406 236.855469 347.117188 240.292969 342.867188 240.292969 C 338.621094 240.292969 335.171875 236.855469 335.171875 232.601562 " fill-opacity="1" fill-rule="nonzero"/></g><g clip-path="url(#e23bdc3e94)"><path fill="#acd8f3" d="M 335.171875 164.585938 C 335.171875 160.332031 338.621094 156.890625 342.867188 156.890625 C 347.117188 156.890625 350.566406 160.332031 350.566406 164.585938 C 350.566406 168.832031 347.117188 172.273438 342.867188 172.273438 C 338.621094 172.273438 335.171875 168.832031 335.171875 164.585938 " fill-opacity="1" fill-rule="nonzero"/></g><g clip-path="url(#120a1ce44f)"><path fill="#333594" d="M 86.015625 165.121094 L 67.65625 165.121094 C 67.261719 165.121094 66.941406 164.800781 66.941406 164.40625 L 66.941406 139.667969 C 66.941406 139.269531 66.625 138.949219 66.230469 138.949219 L 31.988281 138.949219 C 31.59375 138.949219 31.273438 138.632812 31.273438 138.238281 L 31.273438 133.640625 C 31.273438 133.246094 31.59375 132.921875 31.988281 132.921875 L 72.257812 132.921875 C 72.652344 132.921875 72.96875 133.246094 72.96875 133.640625 L 72.96875 158.382812 C 72.96875 158.777344 73.292969 159.09375 73.6875 159.09375 L 89.074219 159.09375 C 87.921875 161.023438 86.898438 163.035156 86.015625 165.121094 " fill-opacity="1" fill-rule="nonzero"/></g><g clip-path="url(#fcf0754e89)"><path fill="#333594" d="M 59.050781 212.246094 L 31.988281 212.246094 C 31.59375 212.246094 31.273438 211.921875 31.273438 211.527344 L 31.273438 206.933594 C 31.273438 206.535156 31.59375 206.21875 31.988281 206.21875 L 53.019531 206.21875 C 53.417969 206.21875 53.734375 205.898438 53.734375 205.507812 L 53.734375 189.75 C 53.734375 189.355469 54.054688 189.039062 54.449219 189.039062 L 82.328125 189.039062 C 82.515625 191.082031 82.839844 193.097656 83.273438 195.0625 L 60.472656 195.0625 C 60.082031 195.0625 59.761719 195.378906 59.761719 195.773438 L 59.761719 211.527344 C 59.761719 211.921875 59.445312 212.246094 59.050781 212.246094 " fill-opacity="1" fill-rule="nonzero"/></g><g clip-path="url(#cbd267cae6)"><path fill="#333594" d="M 77.796875 235.792969 L 31.988281 235.792969 C 31.59375 235.792969 31.273438 235.46875 31.273438 235.074219 L 31.273438 230.476562 C 31.273438 230.089844 31.59375 229.765625 31.988281 229.765625 L 71.773438 229.765625 C 72.164062 229.765625 72.484375 229.449219 72.484375 229.054688 L 72.484375 207.90625 C 72.484375 207.507812 72.808594 207.191406 73.195312 207.191406 L 87.683594 207.191406 C 88.777344 209.292969 90.019531 211.304688 91.390625 213.21875 L 79.226562 213.21875 C 78.828125 213.21875 78.511719 213.535156 78.511719 213.929688 L 78.511719 235.074219 C 78.511719 235.46875 78.191406 235.792969 77.796875 235.792969 " fill-opacity="1" fill-rule="nonzero"/></g><g clip-path="url(#60d2658739)"><path fill="#333594" d="M 82.210938 181.210938 L 54.449219 181.210938 C 54.054688 181.210938 53.734375 180.890625 53.734375 180.5 L 53.734375 168.164062 C 53.734375 167.769531 53.417969 167.449219 53.019531 167.449219 L 31.988281 167.449219 C 31.59375 167.449219 31.273438 167.132812 31.273438 166.738281 L 31.273438 162.140625 C 31.273438 161.746094 31.59375 161.421875 31.988281 161.421875 L 59.050781 161.421875 C 59.445312 161.421875 59.761719 161.746094 59.761719 162.140625 L 59.761719 174.472656 C 59.761719 174.871094 60.082031 175.1875 60.472656 175.1875 L 82.972656 175.1875 C 82.59375 177.152344 82.339844 179.167969 82.210938 181.210938 " fill-opacity="1" fill-rule="nonzero"/></g><g clip-path="url(#ce6e103cb2)"><path fill="#acd8f3" d="M 38.96875 208.964844 C 38.96875 204.71875 35.519531 201.273438 31.273438 201.273438 C 27.023438 201.273438 23.574219 204.71875 23.574219 208.964844 C 23.574219 213.214844 27.023438 216.660156 31.273438 216.660156 C 35.519531 216.660156 38.96875 213.214844 38.96875 208.964844 " fill-opacity="1" fill-rule="nonzero"/></g><g clip-path="url(#556f420893)"><path fill="#acd8f3" d="M 38.96875 232.601562 C 38.96875 228.355469 35.519531 224.910156 31.273438 224.910156 C 27.023438 224.910156 23.574219 228.355469 23.574219 232.601562 C 23.574219 236.855469 27.023438 240.292969 31.273438 240.292969 C 35.519531 240.292969 38.96875 236.855469 38.96875 232.601562 " fill-opacity="1" fill-rule="nonzero"/></g><g clip-path="url(#4cf6c63903)"><path fill="#acd8f3" d="M 38.96875 164.585938 C 38.96875 160.332031 35.519531 156.890625 31.273438 156.890625 C 27.023438 156.890625 23.574219 160.332031 23.574219 164.585938 C 23.574219 168.832031 27.023438 172.273438 31.273438 172.273438 C 35.519531 172.273438 38.96875 168.832031 38.96875 164.585938 " fill-opacity="1" fill-rule="nonzero"/></g><path fill="#333594" d="M 65.75 139 L 106.355469 139 L 106.355469 287.828125 L 65.75 287.828125 Z M 65.75 139 " fill-opacity="1" fill-rule="nonzero"/><path fill="#333594" d="M 133.429688 139 L 174.035156 139 L 174.035156 287.828125 L 133.429688 287.828125 Z M 133.429688 139 " fill-opacity="1" fill-rule="nonzero"/><path fill="#333594" d="M 201.105469 139 L 241.707031 139 L 241.707031 287.828125 L 201.105469 287.828125 Z M 201.105469 139 " fill-opacity="1" fill-rule="nonzero"/><path fill="#333594" d="M 268.777344 139 L 309.386719 139 L 309.386719 287.828125 L 268.777344 287.828125 Z M 268.777344 139 " fill-opacity="1" fill-rule="nonzero"/><path fill="#acd8f3" d="M 65.75 247.238281 L 106.355469 247.238281 L 106.355469 287.828125 L 65.75 287.828125 Z M 65.75 247.238281 " fill-opacity="1" fill-rule="nonzero"/><path fill="#acd8f3" d="M 133.429688 247.238281 L 174.035156 247.238281 L 174.035156 287.828125 L 133.429688 287.828125 Z M 133.429688 247.238281 " fill-opacity="1" fill-rule="nonzero"/><path fill="#acd8f3" d="M 201.105469 247.238281 L 241.707031 247.238281 L 241.707031 287.828125 L 201.105469 287.828125 Z M 201.105469 247.238281 " fill-opacity="1" fill-rule="nonzero"/><path fill="#acd8f3" d="M 268.777344 247.238281 L 309.386719 247.238281 L 309.386719 287.828125 L 268.777344 287.828125 Z M 268.777344 247.238281 " fill-opacity="1" fill-rule="nonzero"/><path fill="#333594" d="M 58.984375 98.414062 L 58.984375 145.765625 C 58.984375 146.207031 59.027344 146.648438 59.109375 147.085938 C 59.199219 147.519531 59.328125 147.941406 59.5 148.355469 C 59.667969 148.765625 59.878906 149.15625 60.121094 149.523438 C 60.371094 149.894531 60.652344 150.234375 60.96875 150.550781 C 61.28125 150.859375 61.617188 151.144531 61.992188 151.390625 C 62.359375 151.640625 62.753906 151.84375 63.160156 152.015625 C 63.570312 152.183594 63.992188 152.3125 64.433594 152.402344 C 64.867188 152.488281 65.304688 152.527344 65.75 152.527344 L 106.355469 152.527344 C 106.800781 152.527344 107.242188 152.488281 107.675781 152.402344 C 108.113281 152.3125 108.539062 152.183594 108.949219 152.015625 C 109.355469 151.84375 109.75 151.640625 110.117188 151.390625 C 110.484375 151.144531 110.828125 150.859375 111.140625 150.550781 C 111.457031 150.234375 111.734375 149.894531 111.984375 149.523438 C 112.230469 149.15625 112.441406 148.765625 112.609375 148.355469 C 112.78125 147.941406 112.90625 147.519531 112.992188 147.085938 C 113.082031 146.648438 113.125 146.207031 113.125 145.765625 L 113.125 98.414062 Z M 58.984375 98.414062 " fill-opacity="1" fill-rule="nonzero"/><path fill="#333594" d="M 126.660156 98.414062 L 126.660156 145.765625 C 126.660156 146.207031 126.707031 146.648438 126.789062 147.085938 C 126.878906 147.519531 127.003906 147.941406 127.171875 148.355469 C 127.34375 148.765625 127.554688 149.15625 127.800781 149.523438 C 128.046875 149.894531 128.328125 150.234375 128.640625 150.550781 C 128.957031 150.859375 129.296875 151.144531 129.667969 151.390625 C 130.035156 151.640625 130.425781 151.84375 130.835938 152.015625 C 131.25 152.183594 131.671875 152.3125 132.105469 152.402344 C 132.542969 152.488281 132.984375 152.527344 133.429688 152.527344 L 174.035156 152.527344 C 174.480469 152.527344 174.917969 152.488281 175.351562 152.402344 C 175.785156 152.3125 176.214844 152.183594 176.621094 152.015625 C 177.03125 151.84375 177.421875 151.640625 177.792969 151.390625 C 178.160156 151.144531 178.507812 150.859375 178.816406 150.550781 C 179.132812 150.234375 179.414062 149.894531 179.664062 149.523438 C 179.90625 149.15625 180.113281 148.765625 180.285156 148.355469 C 180.457031 147.941406 180.585938 147.519531 180.667969 147.085938 C 180.757812 146.648438 180.804688 146.207031 180.804688 145.765625 L 180.804688 98.414062 Z M 126.660156 98.414062 " fill-opacity="1" fill-rule="nonzero"/><path fill="#333594" d="M 194.339844 98.414062 L 194.339844 145.765625 C 194.339844 146.207031 194.378906 146.648438 194.464844 147.085938 C 194.554688 147.519531 194.683594 147.941406 194.851562 148.355469 C 195.023438 148.765625 195.226562 149.15625 195.480469 149.523438 C 195.722656 149.894531 196.007812 150.234375 196.316406 150.550781 C 196.636719 150.859375 196.972656 151.144531 197.339844 151.390625 C 197.714844 151.640625 198.101562 151.84375 198.515625 152.015625 C 198.925781 152.183594 199.347656 152.3125 199.78125 152.402344 C 200.222656 152.488281 200.660156 152.527344 201.105469 152.527344 L 241.707031 152.527344 C 242.152344 152.527344 242.59375 152.488281 243.03125 152.402344 C 243.464844 152.3125 243.886719 152.183594 244.300781 152.015625 C 244.710938 151.84375 245.101562 151.640625 245.472656 151.390625 C 245.839844 151.144531 246.179688 150.859375 246.496094 150.550781 C 246.808594 150.234375 247.089844 149.894531 247.335938 149.523438 C 247.585938 149.15625 247.792969 148.765625 247.964844 148.355469 C 248.128906 147.941406 248.257812 147.519531 248.347656 147.085938 C 248.4375 146.648438 248.476562 146.207031 248.476562 145.765625 L 248.476562 98.414062 Z M 194.339844 98.414062 " fill-opacity="1" fill-rule="nonzero"/><path fill="#333594" d="M 262.011719 98.414062 L 262.011719 145.765625 C 262.011719 146.207031 262.054688 146.648438 262.144531 147.085938 C 262.226562 147.519531 262.355469 147.941406 262.527344 148.355469 C 262.699219 148.765625 262.90625 149.15625 263.152344 149.523438 C 263.402344 149.894531 263.679688 150.234375 263.996094 150.550781 C 264.308594 150.859375 264.652344 151.144531 265.019531 151.390625 C 265.390625 151.640625 265.78125 151.84375 266.191406 152.015625 C 266.597656 152.183594 267.027344 152.3125 267.460938 152.402344 C 267.894531 152.488281 268.332031 152.527344 268.777344 152.527344 L 309.386719 152.527344 C 309.832031 152.527344 310.269531 152.488281 310.710938 152.402344 C 311.144531 152.3125 311.566406 152.183594 311.976562 152.015625 C 312.386719 151.84375 312.777344 151.640625 313.144531 151.390625 C 313.515625 151.144531 313.855469 150.859375 314.171875 150.550781 C 314.484375 150.234375 314.769531 149.894531 315.011719 149.523438 C 315.257812 149.15625 315.46875 148.765625 315.640625 148.355469 C 315.808594 147.941406 315.9375 147.519531 316.027344 147.085938 C 316.109375 146.648438 316.152344 146.207031 316.152344 145.765625 L 316.152344 98.414062 Z M 262.011719 98.414062 " fill-opacity="1" fill-rule="nonzero"/><path fill="#333594" d="M 58.984375 267.070312 L 316.152344 267.070312 C 317.042969 267.070312 317.921875 267.160156 318.792969 267.332031 C 319.667969 267.503906 320.511719 267.761719 321.335938 268.097656 C 322.152344 268.445312 322.933594 268.859375 323.671875 269.351562 C 324.410156 269.84375 325.09375 270.40625 325.722656 271.035156 C 326.351562 271.664062 326.914062 272.347656 327.410156 273.085938 C 327.902344 273.824219 328.320312 274.601562 328.660156 275.425781 C 329 276.242188 329.253906 277.09375 329.425781 277.960938 C 329.605469 278.832031 329.6875 279.710938 329.6875 280.601562 L 329.6875 300.894531 C 329.6875 301.785156 329.605469 302.664062 329.425781 303.535156 C 329.253906 304.410156 329 305.253906 328.660156 306.070312 C 328.320312 306.894531 327.902344 307.671875 327.410156 308.410156 C 326.914062 309.148438 326.351562 309.832031 325.722656 310.460938 C 325.09375 311.089844 324.410156 311.652344 323.671875 312.144531 C 322.933594 312.640625 322.152344 313.058594 321.335938 313.398438 C 320.511719 313.734375 319.667969 313.992188 318.792969 314.164062 C 317.921875 314.335938 317.042969 314.425781 316.152344 314.425781 L 58.984375 314.425781 C 58.09375 314.425781 57.214844 314.335938 56.339844 314.164062 C 55.46875 313.992188 54.621094 313.734375 53.804688 313.398438 C 52.980469 313.058594 52.203125 312.640625 51.464844 312.144531 C 50.722656 311.652344 50.039062 311.089844 49.410156 310.460938 C 48.785156 309.832031 48.222656 309.148438 47.726562 308.410156 C 47.238281 307.671875 46.820312 306.894531 46.476562 306.070312 C 46.136719 305.253906 45.878906 304.410156 45.707031 303.535156 C 45.535156 302.664062 45.445312 301.785156 45.445312 300.894531 L 45.445312 280.601562 C 45.445312 279.710938 45.535156 278.832031 45.707031 277.960938 C 45.878906 277.09375 46.136719 276.242188 46.476562 275.425781 C 46.820312 274.601562 47.238281 273.824219 47.726562 273.085938 C 48.222656 272.347656 48.785156 271.664062 49.410156 271.035156 C 50.039062 270.40625 50.722656 269.84375 51.464844 269.351562 C 52.203125 268.859375 52.980469 268.445312 53.804688 268.097656 C 54.621094 267.761719 55.46875 267.503906 56.339844 267.332031 C 57.214844 267.160156 58.09375 267.070312 58.984375 267.070312 Z M 58.984375 267.070312 " fill-opacity="1" fill-rule="nonzero"/><path fill="#acd8f3" d="M 45.445312 295.054688 L 45.445312 300.894531 C 45.445312 301.785156 45.535156 302.664062 45.707031 303.535156 C 45.878906 304.410156 46.136719 305.253906 46.476562 306.070312 C 46.820312 306.894531 47.238281 307.671875 47.726562 308.410156 C 48.222656 309.148438 48.785156 309.832031 49.410156 310.460938 C 50.039062 311.089844 50.722656 311.652344 51.464844 312.144531 C 52.203125 312.640625 52.980469 313.058594 53.804688 313.398438 C 54.621094 313.734375 55.46875 313.992188 56.339844 314.164062 C 57.214844 314.335938 58.09375 314.425781 58.984375 314.425781 L 316.152344 314.425781 C 317.042969 314.425781 317.921875 314.335938 318.792969 314.164062 C 319.667969 313.992188 320.511719 313.734375 321.335938 313.398438 C 322.152344 313.058594 322.933594 312.640625 323.671875 312.144531 C 324.410156 311.652344 325.09375 311.089844 325.722656 310.460938 C 326.351562 309.832031 326.914062 309.148438 327.410156 308.410156 C 327.902344 307.671875 328.320312 306.894531 328.660156 306.070312 C 329 305.253906 329.253906 304.410156 329.425781 303.535156 C 329.605469 302.664062 329.6875 301.785156 329.6875 300.894531 L 329.6875 295.054688 Z M 45.445312 295.054688 " fill-opacity="1" fill-rule="nonzero"/><g clip-path="url(#0233cdace0)"><path fill="#333594" d="M 327.179688 83.328125 L 190.992188 38.203125 C 188.136719 37.265625 185.285156 37.265625 182.433594 38.203125 L 47.90625 83.328125 C 46.558594 83.777344 45.320312 84.425781 44.179688 85.261719 C 43.039062 86.109375 42.054688 87.101562 41.226562 88.253906 C 40.398438 89.40625 39.769531 90.648438 39.335938 92 C 38.894531 93.34375 38.679688 94.730469 38.679688 96.148438 L 38.679688 118.703125 C 38.679688 119.59375 38.769531 120.476562 38.941406 121.34375 C 39.113281 122.21875 39.367188 123.0625 39.707031 123.886719 C 40.054688 124.707031 40.46875 125.484375 40.960938 126.226562 C 41.453125 126.964844 42.015625 127.648438 42.644531 128.277344 C 43.273438 128.90625 43.957031 129.460938 44.695312 129.953125 C 45.4375 130.449219 46.214844 130.867188 47.039062 131.207031 C 47.855469 131.542969 48.707031 131.800781 49.574219 131.976562 C 50.445312 132.152344 51.324219 132.234375 52.214844 132.234375 L 322.921875 132.234375 C 323.8125 132.234375 324.691406 132.152344 325.5625 131.976562 C 326.4375 131.800781 327.28125 131.542969 328.105469 131.207031 C 328.921875 130.867188 329.699219 130.449219 330.441406 129.953125 C 331.179688 129.460938 331.863281 128.90625 332.492188 128.277344 C 333.121094 127.648438 333.683594 126.964844 334.175781 126.226562 C 334.671875 125.484375 335.089844 124.707031 335.429688 123.886719 C 335.765625 123.0625 336.023438 122.21875 336.195312 121.34375 C 336.367188 120.476562 336.457031 119.59375 336.457031 118.703125 L 336.457031 96.164062 C 336.457031 94.746094 336.238281 93.355469 335.800781 92.007812 C 335.359375 90.65625 334.726562 89.398438 333.894531 88.25 C 333.058594 87.097656 332.070312 86.097656 330.921875 85.257812 C 329.777344 84.417969 328.527344 83.773438 327.179688 83.328125 Z M 327.179688 83.328125 " fill-opacity="1" fill-rule="nonzero"/></g><path fill="#acd8f3" d="M 87.511719 98.585938 L 178.195312 68.1875 C 180.976562 67.265625 183.828125 66.796875 186.757812 66.796875 C 189.683594 66.796875 192.535156 67.265625 195.316406 68.1875 L 287.179688 98.625 C 287.5625 98.753906 287.914062 98.941406 288.230469 99.191406 C 288.542969 99.445312 288.804688 99.738281 289.015625 100.082031 C 289.226562 100.425781 289.367188 100.792969 289.445312 101.1875 C 289.523438 101.589844 289.53125 101.984375 289.464844 102.378906 C 289.40625 102.777344 289.269531 103.152344 289.070312 103.5 C 288.875 103.851562 288.625 104.15625 288.316406 104.417969 C 288.007812 104.679688 287.667969 104.878906 287.292969 105.019531 C 286.914062 105.15625 286.523438 105.222656 286.117188 105.222656 L 88.585938 105.222656 C 88.167969 105.246094 87.761719 105.191406 87.367188 105.0625 C 86.972656 104.929688 86.617188 104.734375 86.289062 104.472656 C 85.964844 104.210938 85.699219 103.902344 85.492188 103.546875 C 85.28125 103.183594 85.140625 102.796875 85.074219 102.390625 C 85.015625 101.976562 85.019531 101.566406 85.101562 101.160156 C 85.1875 100.753906 85.34375 100.371094 85.570312 100.023438 C 85.792969 99.671875 86.070312 99.375 86.402344 99.125 C 86.738281 98.882812 87.109375 98.699219 87.511719 98.585938 Z M 87.511719 98.585938 " fill-opacity="1" fill-rule="nonzero"/></svg>