<?xml version="1.0" encoding="UTF-8"?>
<svg xmlns="http://www.w3.org/2000/svg" xmlns:ns1="http://www.w3.org/1999/xlink" viewBox="0 0 300 299.69789" preserveAspectRatio="xMidYMid meet"><g fill="none" fill-rule="nonzero" stroke="none" stroke-width="1" stroke-linecap="butt" stroke-linejoin="miter" stroke-miterlimit="10" stroke-dasharray="none" stroke-dashoffset="0" font-family="none" font-weight="none" font-size="none" text-anchor="none" style="mix-blend-mode:normal" id="g48" transform="translate(4.9332984,-3.6999738)">
      <path d="m 128.96807,47.2446 c 5.50356,-13.2951 20.40059,-18.29534 33.51387,-13.14701 5.54004,2.17523 10.59229,6.93275 12.83203,12.50352 0.0835,0.20522 0.1626,0.41234 0.23584,0.62122 2.14893,0.09507 4.78125,0.01582 6.95801,0.01099 l 12.44385,-0.0045 39.38672,0.0098 c -0.16699,12.13103 -0.0132,24.62796 -0.0132,36.78784 l 0.003,71.63043 c 0.001,11.82679 0.22119,24.27904 -0.0249,36.02673 -0.2168,0.25634 -0.39404,0.44383 -0.63867,0.67674 -22.68311,21.61897 -52.78271,31.27053 -83.59131,30.96585 -22.08325,-0.22558 -43.70786,-6.3294 -62.6502,-17.68305 C 80.784,201.65012 74.56266,197.07555 69.12809,191.54154 L 69.12921,47.2818 c 5.84326,-0.21254 12.65757,-0.05669 18.56704,-0.05669 z" fill="#171415" id="path2"/>
      <path d="m 128.96807,47.2446 c 5.50356,-13.2951 20.40059,-18.29534 33.51387,-13.14701 5.54004,2.17523 10.59229,6.93275 12.83203,12.50352 0.0835,0.20522 0.1626,0.41234 0.23584,0.62122 -10.28467,-0.03516 -16.78271,0.81179 -21.81006,10.74708 -3.62549,-6.58046 -12.86719,-9.94276 -19.94165,-10.61716 -1.53794,-0.14663 -3.2751,-0.10737 -4.83003,-0.10766 z" fill="#e41417" id="path3"/>
      <path d="m 71.86245,49.91566 c 4.36245,-0.21547 9.63926,-0.08027 14.054,-0.07983 l 25.01895,0.0044 15.18179,-0.01099 c 2.34536,-0.0023 4.94839,-0.08921 7.26445,0.01904 7.25845,0.33939 18.15059,4.71284 19.02656,13.07348 l 2.83301,-0.11528 c 0.43506,-2.30515 0.78662,-3.86853 2.02734,-5.9213 2.25586,-3.73216 6.06445,-6.19185 10.37549,-6.82684 2.87842,-0.35507 6.17285,-0.23437 9.11279,-0.23071 l 14.04053,0.01567 24.49072,-0.0066 c 5.48438,-8.8e-4 10.93945,-0.06299 16.41943,0.12114 -0.14795,6.68871 0.0864,13.55393 -0.0381,20.27297 -0.68115,0.33778 -1.19824,0.57698 -1.64795,1.21622 0.64453,-0.33207 1.06348,-0.5616 1.66846,-0.95695 0.041,0.97102 0.28857,2.54084 -0.24609,3.20981 0.55225,0.70618 0.25342,14.72299 0.25342,16.74295 l 0.003,46.81732 -0.001,14.33628 c 0.004,1.63472 -0.007,3.2709 -0.0322,4.90561 -0.004,0.66209 0.21533,1.50435 -0.25195,1.97601 0.56543,0.71482 0.29883,2.48137 0.23145,3.4745 0.20508,1.43843 0.0571,4.38414 0.0571,5.91339 l 0.004,10.65202 c 0,2.08294 0.17725,9.82001 -0.15381,11.54701 -0.49072,2.56193 -12.45264,10.85563 -14.58691,12.21056 -17.65137,11.33022 -38.02588,17.70063 -58.98779,18.44328 -23.79258,0.64012 -44.45596,-3.40566 -65.44468,-15.15335 -7.8457,-4.39147 -14.04067,-8.67454 -20.60405,-14.89554 -0.26895,-6.41143 -0.04482,-13.52156 -0.10342,-19.98865 -0.02886,-3.18447 -0.18926,-9.84638 0.10137,-12.81992 -0.03647,-1.00192 -0.11133,-2.02142 0.01333,-3.01309 -0.03691,-0.18603 -0.06548,-0.35448 -0.06973,-0.54491 -0.11587,-5.11801 -0.05229,-10.29959 -0.04658,-15.41877 l 0.004,-28.58863 -0.0016,-26.52473 c 0,-4.01721 -0.05889,-8.08554 -0.03955,-12.10495 0.0034,-0.69944 0.03735,-0.75276 0.41616,-1.17433 -0.53306,-0.55867 -0.31992,-2.47961 -0.29956,-3.39204 -0.27363,-5.16049 -0.0687,-11.90882 -0.04219,-17.18429 z" fill="#dd8f1b" id="path4"/>
      <path d="m 71.92822,157.86139 c 2.35488,-1.36812 4.74946,-2.84171 7.05278,-4.29919 10.45942,-6.62089 21.34878,-12.80527 31.72324,-19.53749 l 22.81494,14.19244 c 5.56875,3.48476 12.00015,7.66822 17.63657,10.94791 5.22363,-2.83732 11.62207,-6.90506 16.80615,-10.0368 l 24.19629,-14.59321 c 7.36963,5.03305 14.71289,10.10536 22.02832,15.21721 5.75684,3.9989 11.8418,8.07397 17.45947,12.20031 0.20508,1.43843 0.0571,4.38414 0.0571,5.91339 l 0.004,10.65202 c 0,2.08294 0.17725,9.82001 -0.15381,11.54701 -0.49072,2.56193 -12.45264,10.85563 -14.58691,12.21056 -17.65137,11.33022 -38.02588,17.70063 -58.98779,18.44328 -23.79258,0.64012 -44.45596,-3.40566 -65.44468,-15.15335 -7.8457,-4.39147 -14.04067,-8.67454 -20.60405,-14.89554 -0.26895,-6.41143 -0.04482,-13.52156 -0.10342,-19.98865 -0.02886,-3.18447 -0.18926,-9.84638 0.10137,-12.81992 z" fill="#162d80" id="path5"/>
      <path d="m 146.26772,163.26211 c 0.16216,-0.009 0.32505,-0.0176 0.48618,-0.0234 19.72998,-0.84519 38.63818,5.52229 54.87744,16.4951 2.59277,1.75043 6.08057,3.97986 8.37012,6.07452 -1.38281,1.66108 -5.04053,4.11316 -6.92725,5.42122 -13.91602,9.54756 -30.18311,15.09622 -47.03174,16.04248 -23.76006,0.80417 -44.74761,-7.42946 -63.54434,-21.62629 0.1459,-0.208 0.40898,-0.58445 0.59121,-0.74705 14.10498,-12.54893 34.70713,-20.95981 53.17837,-21.63655 z" fill="#171415" id="path6"/>
      <path d="m 147.71045,165.15756 c 23.5752,-0.24023 40.37842,6.92264 59.2749,20.72837 -14.87109,11.60414 -33.97998,19.02481 -52.92041,19.38808 -17.61929,0.84372 -35.63745,-5.28939 -50.45332,-14.43999 -2.79082,-1.7226 -5.45918,-3.58729 -8.14849,-5.46077 2.20532,-1.95551 5.76226,-4.41637 8.24443,-6.00568 13.15122,-8.5471 28.33579,-13.45125 44.00288,-14.21002 z" fill="#ffffff" id="path7"/>
      <path d="m 152.34961,187.08999 c 5.99121,-0.1084 12.20068,-0.0308 18.20654,-0.0293 -0.16699,2.53557 -0.79395,4.39147 -1.87646,6.64872 l -1.10596,1.79438 c -2.896,-4.63023 -10.31104,-5.12533 -15.22705,-5.38607 z" fill="#162d80" id="path8"/>
      <path d="m 133.40698,187.05777 c 1.6834,0.085 3.96328,0.0132 5.70454,0.0132 l 11.44072,0.003 0.0146,3.16983 c -1.82373,0.007 -3.01465,0.13037 -4.80278,0.36913 -0.19351,0.0308 -0.38657,0.0659 -0.57891,0.10254 -3.45557,0.66355 -6.8332,1.6186 -8.88809,4.63755 -1.98765,-2.66593 -2.48657,-5.10775 -2.89014,-8.29516 z" fill="#162d80" id="path9"/>
      <path d="m 135.929,177.76069 c 0.12803,0.0644 0.093,0.0322 0.1938,0.14209 3.0416,3.32949 10.07988,4.11755 14.40161,4.3109 l 0.0366,3.23135 -2.2207,-0.006 -14.94097,-0.001 c 0.29736,-3.11563 0.94395,-5.00668 2.52964,-7.67701 z" fill="#162d80" id="path10"/>
      <path d="m 168.23438,178.38323 c 1.29199,0.88327 2.2002,5.56184 2.35107,7.04861 -5.08154,0.0981 -10.46191,0.007 -15.56836,0.007 l -2.68359,-0.001 c 0.0396,-0.98434 0.0117,-2.09027 0.009,-3.08633 5.34082,-0.31054 11.47412,-0.61229 15.89209,-3.96814 z" fill="#162d80" id="path11"/>
      <path d="m 162.80713,172.68223 c 1.44141,0.53758 3.76758,3.1625 4.70361,4.37243 -3.67383,2.67179 -6.08496,2.97061 -10.59082,3.53602 -1.53662,0.11718 -3.07031,0.2578 -4.61133,0.25048 0.12891,-1.23483 0.0571,-3.31484 0.0513,-4.61265 3.92725,0 7.46045,-0.93747 10.44727,-3.54628 z" fill="#162d80" id="path12"/>
      <path d="m 152.36572,191.64845 c 3.28271,-0.11425 7.26709,0.49803 10.33154,1.73139 1.7373,0.70017 2.79785,1.84858 3.94922,3.27822 -0.40723,0.4995 -1.11768,1.15866 -1.59521,1.62739 -0.79834,0.63865 -1.45166,1.09713 -2.2998,1.67134 -2.77734,-2.50481 -6.69287,-3.40419 -10.34766,-3.40712 -0.0718,-1.57173 -0.0366,-3.31631 -0.0381,-4.90122 z" fill="#162d80" id="path13"/>
      <path d="m 149.55176,191.6587 c 0.40283,-0.0381 0.49072,-0.10254 0.82764,0.085 0.39697,0.79978 0.18896,3.66932 0.16553,4.78989 -3.38232,0.0557 -6.86646,1.21139 -9.49014,3.37929 -0.57847,-0.41014 -1.17407,-0.87009 -1.7458,-1.29635 -0.88389,-0.76463 -1.33711,-1.20553 -2.12534,-2.0683 l 0.40181,-0.49657 c 2.87285,-3.55214 7.70332,-3.98572 11.96631,-4.39293 z" fill="#162d80" id="path14"/>
      <path d="m 141.04263,172.67491 c 2.48481,2.47405 6.11997,3.32656 9.51401,3.57411 l 0.006,4.47057 c -1.35059,0.0352 -2.87402,-0.14209 -4.20996,-0.29735 -2.42725,-0.45848 -4.47671,-0.68846 -6.73945,-1.8061 -0.90557,-0.44823 -2.12183,-1.66987 -2.79814,-1.80463 l 0.005,-0.25195 c 0.70898,-1.27584 3.03193,-3.04092 4.22271,-3.88465 z" fill="#162d80" id="path15"/>
      <path d="m 152.29248,169.52412 c 0.33984,0.0703 1.89111,0.14794 2.41699,0.21386 2.76709,0.34716 4.37549,0.97409 6.83936,2.11224 -0.59033,0.52733 -0.97559,0.76023 -1.63184,1.18795 -2.44922,1.17916 -4.84863,1.71528 -7.56885,1.74458 0.0395,-1.46333 0.10547,-3.83045 -0.0557,-5.25863 z" fill="#162d80" id="path16"/>
      <path d="m 152.37012,198.02618 c 3.48047,-0.14062 6.34863,0.78074 9.15674,2.7465 l -1.3623,0.64158 c -2.76855,1.1235 -4.83691,1.53364 -7.79297,1.63032 0.0308,-1.63618 0,-3.3749 -0.001,-5.0184 z" fill="#162d80" id="path17"/>
      <path d="m 149.49902,169.66767 c 0.51855,-0.0601 0.43945,-0.11865 0.86865,0.0674 0.3999,0.7822 0.20068,3.91394 0.18457,5.07846 -2.16211,-0.23583 -3.44092,-0.4951 -5.46123,-1.19528 -1.18052,-0.48631 -1.79355,-0.90525 -2.76841,-1.68452 2.25278,-1.30367 4.63345,-1.87055 7.17642,-2.26604 z" fill="#162d80" id="path18"/>
      <path d="m 149.44482,198.09356 c 0.36475,-0.0674 0.81299,-0.14941 1.08691,0.104 0.13623,1.24947 0.0381,3.50233 0.019,4.82651 -2.19873,-0.24023 -3.40283,-0.48045 -5.5188,-1.11911 -0.96255,-0.40428 -1.70186,-0.66502 -2.56846,-1.25826 2.45039,-1.74897 3.97163,-2.15179 6.9813,-2.55314 z" fill="#162d80" id="path19"/>
      <path d="m 71.86245,49.91566 c 4.36245,-0.21547 9.63926,-0.08027 14.054,-0.07983 l 25.01895,0.0044 15.18179,-0.01099 c 2.34536,-0.0023 4.94839,-0.08921 7.26445,0.01904 7.25845,0.33939 18.15059,4.71284 19.02656,13.07348 l 2.83301,-0.11528 c 0.43506,-2.30515 0.78662,-3.86853 2.02734,-5.9213 2.25586,-3.73216 6.06445,-6.19185 10.37549,-6.82684 2.87842,-0.35507 6.17285,-0.23437 9.11279,-0.23071 l 14.04053,0.01567 24.49072,-0.0066 c 5.48438,-8.8e-4 10.93945,-0.06299 16.41943,0.12114 -0.14795,6.68871 0.0864,13.55393 -0.0381,20.27297 -0.68115,0.33778 -1.19824,0.57698 -1.64795,1.21622 -1.6875,1.20538 -4.28467,2.61584 -6.14795,3.70096 l -8.58398,5.0745 c -7.65527,4.56431 -15.33838,9.08102 -23.05078,13.55012 -3.31787,-2.05423 -7.18945,-4.85639 -10.45898,-7.06546 L 164.37304,75.0598 c -3.95947,-2.6778 -9.18604,-6.3565 -13.18359,-8.84197 -8.17324,5.75168 -17.49668,11.68675 -25.85552,17.24274 l -9.225,6.22745 c -1.69102,1.14108 -3.7418,2.60939 -5.49287,3.57089 -5.07715,-3.54101 -10.19824,-7.01873 -15.36182,-10.4323 L 71.90463,67.09994 C 71.631,61.93945 71.83593,55.19112 71.86244,49.91565 Z" fill="#162d80" id="path20"/>
      <path d="m 231.44385,73.6999 c 0.55225,0.70618 0.25342,14.72299 0.25342,16.74295 l 0.003,46.81732 -10e-4,14.33628 c 0.004,1.63472 -0.007,3.2709 -0.0322,4.90561 -0.004,0.66209 0.21533,1.50435 -0.25195,1.97601 -10.42969,-7.49977 -21.29004,-14.59702 -31.79736,-22.00758 -1.94238,-1.36973 -4.08691,-2.70255 -5.93555,-4.176 -0.0278,-11.79515 -0.23291,-24.4516 0.0366,-36.18142 0.94189,-0.70457 2.56787,-1.61289 3.61523,-2.23616 l 7.54102,-4.42047 c 8.81982,-5.23329 17.81396,-10.44299 26.56934,-15.75655 z" fill="#162d80" id="path21"/>
      <path d="m 72.2042,70.49199 c 1.83574,1.11881 3.82236,2.56135 5.64419,3.78343 l 13.27793,8.96911 10.86226,7.30803 c 2.07451,1.38673 5.47119,3.57382 7.38486,5.08227 -0.0844,2.50949 -0.0734,5.1227 -0.0483,7.63717 0.0943,9.47915 -0.15527,19.01939 0.0565,28.49269 l -25.30942,15.59557 c -3.80742,2.34954 -8.50518,5.03744 -12.13066,7.48805 -0.03691,-0.18603 -0.06548,-0.35448 -0.06973,-0.54491 -0.11587,-5.11801 -0.05229,-10.29959 -0.04658,-15.41877 l 0.004,-28.58863 -0.0016,-26.52473 c 0,-4.01721 -0.05889,-8.08554 -0.03955,-12.10495 0.0034,-0.69944 0.03735,-0.75276 0.41616,-1.17433 z" fill="#162d80" id="path22"/>
      <path d="m 151.1792,70.35957 c 1.99805,1.16657 4.36816,2.89005 6.34863,4.22243 l 11.31445,7.59703 c 6.73828,4.54205 14.78174,9.60937 21.27979,14.34375 l 0.0146,35.27456 c -2.40234,1.31641 -5.05664,3.02481 -7.43848,4.44537 l -18.50537,11.10581 c -1.7959,1.06344 -6.40723,4.09704 -8.02734,4.80161 -0.68115,0.43944 -3.15234,2.10345 -3.78662,2.29095 l -0.12891,0.37206 c -0.62842,0.26513 -1.35937,0.20068 -2.01855,0.11425 -0.23291,-0.22265 -0.17139,-0.0967 -0.22998,-0.34862 -1.02393,-0.87888 -3.50684,-2.36565 -4.72075,-3.11856 l -7.80659,-4.82212 -24.53452,-15.25368 -0.0145,-35.36318 c 0.88008,-0.83069 3.01187,-2.15164 4.09819,-2.86295 2.19185,-1.42847 4.37358,-2.87232 6.54521,-4.33126 z" fill="#ffffff" id="path23"/>
      <path d="m 152.26172,91.2479 c 5.47119,3.21055 6.28271,10.32317 6.73682,16.03721 3.2168,-4.26916 9.3501,-6.70233 14.34814,-8.14707 1.01953,5.20458 1.27881,8.32768 -1.06201,13.15155 5.31738,-1.704 7.99072,-2.35554 13.63037,-1.93749 -1.36963,2.83995 -2.26465,4.65118 -4.30371,7.18835 -5.91211,7.3508 -14.71729,12.04372 -23.84619,14.02867 -1.79736,0.39081 -3.60937,0.51034 -5.42432,0.71643 l 0.0293,2.45207 c -0.0337,3.97971 -0.0425,7.95972 -0.0278,11.94002 0.001,2.47551 -0.063,5.3099 0.0366,7.76343 l -0.12891,0.37206 c -0.62842,0.26513 -1.35937,0.20068 -2.01855,0.11425 -0.23291,-0.22265 -0.17139,-0.0967 -0.22998,-0.34862 l 0.009,-22.40161 c -8.75435,-1.36549 -14.95371,-2.12293 -22.65,-7.78585 -5.14321,-3.78416 -9.6583,-10.14578 -10.57969,-16.56234 6.26719,0.11689 10.83193,0.97131 16.40669,4.03655 -1.97988,-4.05515 -2.58032,-7.93701 -2.7123,-12.43658 5.93701,0.05888 10.52563,2.4865 14.41436,6.94212 -0.028,-2.24861 -0.0788,-3.79603 0.51138,-6.01183 0.99595,-3.73949 3.48457,-7.17151 6.86104,-9.11134 z" fill="#171415" id="path24"/>
      <path d="m 152.21045,93.41741 c 0.57422,0.2058 1.52783,1.34307 1.875,1.89589 2.91211,4.62979 2.97363,10.59562 2.97803,15.8292 l 1.8457,0.0485 c 0.18164,-0.4286 0.37646,-0.85119 0.58594,-1.26734 2.22803,-4.44523 7.89404,-7.06897 12.38086,-8.55296 0.9917,5.99645 -0.0425,9.75014 -4.4707,13.85758 0.32227,0.49203 0.6709,0.87038 1.05322,1.31202 4.34473,-2.92901 9.41748,-4.62613 14.66455,-4.64166 -5.27344,10.21888 -17.67041,17.39258 -29.02148,18.44109 -3.07471,0.28402 -6.67822,-0.22045 -9.74326,-0.67029 -11.57974,-2.55651 -21.58521,-7.97524 -25.29858,-20.02248 7.88848,0.35331 12.79438,2.80011 18.56836,7.80196 l 1.31836,-1.13346 c -0.8335,-0.8761 -2.14058,-2.16541 -2.79258,-3.10977 -2.45918,-3.56122 -3.50098,-7.87212 -3.72129,-12.11447 6.96152,1.80331 9.82441,4.15549 13.77202,10.27923 l 1.76953,-0.25136 c -2.14014,-7.24636 -1.94063,-12.69468 4.23633,-17.70166 z" fill="#e41417" id="path25"/>
      <path d="m 152.37012,134.73764 c 0.35742,0.76961 0.17432,15.4819 0.18018,17.52969 1.26855,-0.007 2.35107,-0.0322 3.61523,-0.11718 -0.68115,0.43944 -3.15234,2.10345 -3.78662,2.29095 -0.0996,-2.45354 -0.0352,-5.28792 -0.0366,-7.76343 -0.0146,-3.9803 -0.006,-7.9603 0.0278,-11.94002 z" fill="#fdfcf5" id="path26"/>
      <path d="m 50.07187,206.91312 c 1.89727,-0.15527 4.42427,-0.11718 6.40137,-0.11279 7.58438,0.0161 18.28784,0.31054 24.49717,5.07406 2.88047,2.20892 3.24141,4.67857 3.23994,7.99048 -7.3e-4,1.45455 0.17974,4.17028 0.34175,5.63801 5.43413,2.18841 13.93608,4.22741 19.65659,5.58967 13.42573,3.25039 27.1248,5.24691 40.92012,5.96173 2.64316,0.11865 5.6168,0.0644 8.296,0.063 15.19482,-0.041 30.35596,-1.45748 45.2959,-4.23327 4.39014,-0.81589 8.76563,-1.71674 13.12207,-2.70109 1.73291,-0.39257 5.04346,-1.08981 6.62695,-1.70942 0.0513,-0.76023 0.11279,-2.25579 0.0395,-2.96915 -0.83789,-7.8191 0.15967,-14.92191 9.78662,-14.93363 9.41162,-0.0132 19.04883,-0.74558 28.4707,-0.54491 l -7.0957,10.80582 c -1.25391,1.9101 -2.85791,4.20397 -3.9375,6.16973 6.25928,4.98911 10.99072,9.21359 16.43994,15.04349 -3.66357,-0.9448 -5.70264,-1.77241 -9.6665,-2.5634 -6.89355,-1.45015 -16.15137,-1.84418 -21.60937,3.30312 0.37793,3.41591 0.19629,8.96164 0.73828,12.07287 -5.97656,3.49501 -21.08936,7.85718 -28.021,9.37471 -34.40039,7.532 -72.99741,7.95093 -106.84849,-2.33635 -7.87939,-2.39348 -17.7813,-6.14776 -24.72744,-10.49089 l 7.3e-4,-10.86295 c -6.76641,-4.59068 -21.64497,-3.68983 -29.65518,-3.16836 1.28027,-1.38424 3.24375,-2.96182 4.66523,-4.23473 3.17461,-2.84464 6.58374,-5.60432 9.68555,-8.51781 -0.3999,-0.74558 -0.87612,-1.49702 -1.31265,-2.22503 -3.06035,-5.10629 -6.32534,-10.13348 -9.29121,-15.29397 1.35454,-0.007 2.59321,-0.0952 3.94058,-0.18896 z" fill="#171415" id="path27"/>
      <path d="m 74.56626,223.99707 c 0.45146,0.22704 0.9041,0.44969 1.3582,0.67234 6.10049,2.97354 14.69824,5.46077 21.33237,7.18044 14.79126,3.83484 30.41104,6.52421 45.67427,7.46169 3.40767,0.20947 7.75298,0.16699 11.14556,0.14794 16.63184,-0.10254 33.21533,-1.81928 49.51611,-5.12387 7.5542,-1.51167 16.65527,-3.39833 23.96631,-5.91925 0.37061,8.41674 0.83936,16.82761 1.40479,25.23263 l -1.83545,0.7822 c -7.46631,3.10684 -17.02148,5.96759 -24.94043,7.68873 -34.01367,7.38991 -71.88926,7.61256 -105.30029,-2.64103 -6.44355,-1.97748 -16.72896,-5.87384 -22.39746,-9.49483 0.22251,-8.55589 -0.13052,-17.38863 0.07603,-25.987 z" fill="#dd8f1b" id="path28"/>
      <path d="m 123.14985,239.06253 c 4.23267,-0.63133 9.18633,3.54774 9.11777,7.89966 2.7769,0.28124 4.75298,-0.0571 6.31685,2.56633 3.21064,-2.99405 4.41841,-1.86322 6.09038,1.47212 0.0823,-2.12835 0.006,-4.17321 0.173,-6.32354 1.15957,1.12057 1.56812,1.69038 1.96904,3.20645 0.69141,-0.022 1.56592,0.0557 2.27197,0.0981 -0.38525,-0.67088 -0.48926,-1.05173 -0.72363,-1.77387 1.49707,-7.23464 9.65918,-5.80207 13.23926,-1.28023 0.87305,1.10299 0.92285,1.40328 1.11621,2.7465 3.19189,0.28417 9.98291,-0.7617 13.4751,-0.95358 2.61182,-0.14355 6.62549,-1.2817 9.17285,-0.52147 -0.33691,-1.33004 -0.50098,-2.4301 -0.70898,-3.77918 0.0352,0.022 0.0688,0.0439 0.104,0.0659 l 0.17285,0.11279 c 1.23193,0.80564 1.41797,1.42671 2.15625,2.73039 4.99219,-1.04147 10.16748,-2.01263 15.14209,-3.12002 3.12891,-0.69578 6.57422,-2.00385 9.83496,-2.81241 1.25098,0.58006 1.76514,0.91257 2.91504,1.68012 -0.77051,0.26952 -1.70215,0.52 -2.49902,0.75291 0.68994,2.44036 1.64648,4.78843 2.49463,7.17605 0.96387,2.71134 1.89111,5.42269 2.88574,8.12524 -2.28662,-1.42232 -3.70459,-3.34707 -6.09229,-4.57164 -1.26123,-0.64744 -2.9707,0.17285 -3.97998,-0.25048 -0.59033,-0.24755 -2.18848,-1.56001 -2.8125,-2.00531 0.48193,-1.36519 1.5791,-3.52577 2.23682,-4.90268 -1.95703,-0.0161 -4.2334,-0.37352 -5.85352,-0.3413 -0.22852,0.61961 3.30029,13.52595 3.56396,15.17825 l 0.0366,0.23583 c -0.35742,-0.23583 -2.05225,-1.32271 -2.22656,-1.61567 -1.1499,-1.92914 -1.46045,-5.2015 -2.17969,-7.39431 -0.39404,-1.20114 -0.57715,-1.65376 -1.604,-2.21331 -0.97998,0.10254 -0.50391,1.57173 -0.36182,2.25433 -1.72998,1.66987 -0.55664,1.27584 -1.00928,3.33242 -0.17871,0.48485 -0.95215,1.06491 -1.38574,1.22018 -3.8833,1.37984 -6.84375,-3.85242 -5.26904,-7.09109 0.61523,-1.26705 1.46191,-1.58638 2.6499,-1.99945 0.78076,0.25927 1.47656,0.61522 2.21924,0.96823 l 0.9873,-1.47212 c 0.87451,0.006 1.39014,0.14648 2.28516,0.0498 0.1377,-0.29296 -0.0132,-0.48778 -0.13623,-0.89939 -0.67969,-0.16552 -9.67822,1.85444 -11.12988,2.15911 0.79688,4.92172 2.52539,11.27749 3.00732,15.9707 -0.42041,-0.37059 -2.01855,-1.58931 -2.18408,-1.91742 -1.69775,-3.37929 -1.29199,-8.74485 -2.94287,-12.24572 -0.44678,-0.83054 -0.92432,-0.9902 -1.76221,-1.18063 -2.64404,-0.60643 -1.92773,2.3554 -1.57324,3.94617 0.77197,3.45839 3.39258,7.64039 0.30469,10.74137 -0.7002,0.70457 -2.20312,1.89545 -3.12598,0.88034 -0.10254,-1.30807 2.30566,-2.9003 2.15771,-3.85535 -0.77637,-5.05502 -3.05566,-5.82258 -1.35791,-11.40932 -0.53174,0.12451 -1.31543,0.19921 -1.875,0.26952 -3.36035,0.31786 -6.7251,0.58885 -10.09277,0.8115 l 0.36035,4.7357 c 2.08008,-2.28362 2.69092,-2.81681 5.31299,-4.33141 0.99023,0.82761 2.01563,1.30807 2.98096,2.22064 -1.11035,2.97794 -1.5835,5.61165 -0.94336,8.81663 0.20947,1.04733 0.69873,2.24554 0.62109,3.34121 l -0.23877,0.12304 c -0.55957,-0.082 -0.97705,-0.40721 -1.46045,-0.71043 -1.13965,-4.14099 -1.34619,-5.09897 -1.7373,-9.35274 -2.20752,1.90277 -2.896,3.30605 -3.86719,6.04376 -1.7373,-1.44576 -2.65869,-2.26458 -2.87695,-4.66978 -0.18018,-1.98773 -0.3252,-4.0033 -0.54639,-5.98517 l -2.36572,0.0381 c 0.0322,5.01547 0.62988,11.57338 0.41602,16.27245 -3.19922,-4.13659 -2.05078,-6.16094 -8.30713,-7.74 -1.09863,-1.11911 -1.44873,-1.77534 -2.13281,-3.18447 3.27686,-2.65422 4.25244,-3.14346 7.93945,-5.17221 -2.80957,-0.0981 -6.74414,0.11865 -9.77344,0.11718 -0.32227,4.90268 -0.0147,10.48357 -0.26221,15.61036 l -0.15967,-0.15527 c -0.46143,-0.45409 -1.59229,-1.56733 -1.66699,-2.11371 -0.53467,-3.89783 -0.0703,-9.29854 -0.0776,-13.1744 -0.97412,-0.022 -1.94971,-0.0293 -2.92529,-0.022 -0.14209,1.08249 -0.22588,2.17083 -0.25313,3.26211 -0.0415,2.13714 0.31904,11.71546 -0.47593,12.90049 -1.35513,0.0293 -1.42661,-3.31631 -5.06426,-3.96082 l -0.21313,-0.0352 c -0.58682,-2.28948 -1.47202,-3.61366 1.06758,-4.79136 0.70664,-0.32811 1.83896,-1.29488 2.39063,-1.86762 0.0407,-1.17037 0.0504,-2.40813 -0.46875,-3.49208 -0.31479,-0.65769 -1.21553,-1.70942 -2.01401,-1.24508 -0.0211,0.98288 4.1127,4.94809 -0.76641,5.7508 -0.81108,0.1333 -1.46895,-0.58153 -2.03862,-1.06344 -2.11758,1.48677 -3.3876,1.45748 -4.20425,-1.24801 0.42056,-2.42571 1.14961,-2.36858 2.30449,-4.078 l -0.0831,-0.25195 c -0.94556,-0.56688 -2.9707,-0.71043 -4.16514,-0.92722 -0.92124,5.07113 -1.52241,11.2687 -2.59878,16.05566 -2.23696,-4.62291 -1.30591,-6.57255 -6.8124,-8.98508 -0.59795,-0.93601 -1.16118,-2.30559 -1.62744,-3.34414 2.7457,-1.82514 5.89644,-2.90909 9.00923,-3.8993 -2.56377,-0.35888 -7.59653,-0.96237 -9.73184,-1.53364 -0.87642,4.51744 -2.2749,11.05337 -3.40591,15.42873 l -1.58027,-2.39348 c 0.52441,-4.09265 2.04858,-8.9382 2.7145,-13.26376 -2.06104,-0.4951 -2.02368,-1.06051 -2.8894,-2.95303 1.05308,0.0542 1.69922,0.16259 2.74307,0.34569 -0.0797,-3.35293 1.60796,-4.82944 4.66318,-5.83869 z" fill="#e41417" id="path29"/>
      <path d="m 154.66406,243.61659 c 3.46143,-0.13183 5.18701,1.85297 7.65674,4.04724 -1.1792,0.18896 -2.71729,0.17431 -3.9375,0.20068 -1.93652,0.0747 -3.9873,0.23583 -5.92676,0.17724 -0.76318,-0.022 -1.24512,-0.21386 -1.55273,-0.92868 0.12744,-1.74018 2.20752,-3.09951 3.76025,-3.49648 z" fill="#dd8f1b" id="path30"/>
      <path d="m 124.45313,241.72553 c 3.41147,-0.208 5.62104,2.49309 7.24219,5.12387 -1.13364,-0.0923 -2.09517,-0.24462 -3.22104,-0.42479 -1.62993,-0.18603 -6.98965,-0.30761 -7.6396,-1.72993 -0.0592,-1.52193 2.33467,-2.69962 3.61846,-2.96915 z" fill="#dd8f1b" id="path31"/>
      <path d="m 207.55811,243.30898 c 0.93164,-0.3413 1.78271,-0.5991 2.7334,-0.88474 0.81738,2.18841 1.604,4.38561 2.36426,6.59306 0.28125,0.81296 0.56543,1.5937 0.7749,2.42717 -0.76172,-0.55955 -1.39307,-1.02389 -2.31592,-1.32125 -0.57129,-0.22997 -1.48096,-0.4204 -2.10498,-0.57127 0.5376,-1.37252 1.09424,-2.59416 1.70654,-3.93006 -0.49951,-0.51561 -2.41113,-1.76215 -3.1582,-2.31292 z" fill="#dd8f1b" id="path32"/>
      <path d="m 212.65576,249.0173 c 0.28125,0.81296 0.56543,1.5937 0.7749,2.42717 -0.76172,-0.55955 -1.39307,-1.02389 -2.31592,-1.32125 0.33838,-0.43651 1.0459,-0.79978 1.54102,-1.10592 z" fill="#f47331" id="path33"/>
      <path d="m 161.38623,253.84821 c 0.32373,0.47752 0.36182,4.72984 0.38672,5.56917 -0.7749,-0.82908 -1.13525,-1.18063 -2.01562,-1.89106 -0.58301,-0.45702 -1.44873,-0.97995 -2.09033,-1.39156 1.32275,-0.93747 2.29541,-1.50874 3.71924,-2.28655 z" fill="#dd8f1b" id="path34"/>
      <path d="m 129.64321,252.69834 c 0.48105,0.61522 -0.48105,4.57017 -0.70312,5.43294 -0.40503,-0.69871 -0.75249,-1.18502 -1.21831,-1.83393 -0.60322,-0.6284 -1.32583,-1.23336 -1.98281,-1.81342 1.25273,-0.61668 2.62485,-1.20699 3.90425,-1.78559 z" fill="#dd8f1b" id="path35"/>
      <path d="m 194.2749,250.02801 c 1.37256,-0.082 2.38037,0.61522 2.84766,1.91156 l -0.19043,0.0967 c -0.8291,-0.97263 -1.25684,-1.00339 -2.48291,-0.74558 -1.04297,0.89353 -0.4585,1.18942 -0.89795,2.29241 l -0.21826,-0.12304 c -0.76904,-1.60981 -0.48047,-2.46086 0.94189,-3.43202 z" fill="#f47331" id="path36"/>
      <path d="m 97.93345,235.818 c 0.30601,0.67967 0.47446,1.25094 0.69902,1.95697 l -0.60454,1.67573 c 1.54102,0.95212 1.36348,1.40181 1.7937,3.09219 3.42422,-2.3012 5.38931,-1.6435 6.94922,2.04779 0.32124,-0.96237 1.43379,-4.85874 2.07891,-5.18832 0.83496,0.83347 0.11309,2.58976 1.25215,3.67958 0.73345,0.55076 1.24175,2.16204 1.57866,3.04678 -0.60967,-0.18456 -1.852,-0.52733 -2.38286,-0.7617 l -0.39272,0.0322 c -0.47637,0.51707 -4.83457,13.26083 -5.47749,14.92923 -0.44634,-0.9902 -0.87671,-2.04779 -1.30415,-3.05264 0.85796,-2.54143 1.69849,-4.97592 2.66133,-7.66676 0.99888,-2.33196 0.38467,-6.13604 -2.93994,-4.88803 -0.93516,0.35155 -2.02339,2.00238 -1.28687,2.86808 1.80249,-3.66346 5.79727,2.08294 1.59434,3.33242 -0.86865,0.25488 -1.80366,0.14794 -2.59248,-0.29589 -2.47046,-1.40035 -2.17544,-5.06674 -0.57407,-6.80253 0.27729,-0.30028 0.21958,-0.65037 0.12817,-1.03122 -0.31919,-0.35741 -0.32974,-0.36766 -0.78574,-0.53026 l -1.12412,-0.40868 c -2.33203,4.8646 -4.84146,9.8581 -7.23296,14.70365 -0.42378,-1.08395 -0.66929,-1.96869 -0.98569,-3.09219 1.3626,-3.91541 5.34507,-7.92896 3.88169,-12.15344 -0.37339,-1.07663 -2.24604,-1.66401 -3.15249,-1.22897 -0.03794,1.07077 6.20479,3.17715 -3.44224,8.3098 -0.38511,-1.35054 -0.51826,-1.93207 -0.65537,-3.32802 1.02598,-0.47752 3.08921,-1.43843 3.95479,-2.0888 -0.21797,-0.68992 -2.4624,0.33983 -3.21812,-0.3413 -1.10361,-0.86716 -0.55986,-2.68351 0.16128,-3.62098 2.79478,-3.63417 8.12095,-2.12103 8.61519,2.47258 0.9498,-1.73579 1.87954,-3.84949 2.80342,-5.66731 z" fill="#e41417" id="path37"/>
      <path d="m 110.1019,243.08194 c 0.73345,0.55076 1.24175,2.16204 1.57866,3.04678 -0.60967,-0.18456 -1.852,-0.52733 -2.38286,-0.7617 0.82354,-0.66795 0.52896,-1.18356 0.76963,-2.15033 z" fill="#d92506" id="path38"/>
      <path d="m 210.2417,253.08651 c 2.43896,-0.009 3.78955,2.19427 1.88525,3.99304 -2.8667,0.1831 -3.97266,-2.63957 -1.88525,-3.99304 z" fill="#e41417" id="path39"/>
      <path d="m 251.58838,212.33434 0.3501,-0.0469 0.0586,0.19335 c -0.4541,1.08102 -2.31299,3.73084 -3.06738,4.88218 -2.21045,3.33242 -4.38721,6.68534 -6.53174,10.05878 0.6958,0.51561 1.34326,1.05905 2.00391,1.6186 3.19043,2.69816 6.4292,5.31429 9.46143,8.19116 -7.11914,-1.05612 -14.44043,-2.01556 -21.16846,1.24947 -0.70605,0.36327 -1.24951,0.74705 -1.9043,1.18795 -0.35742,-3.63856 -0.79834,-11.18374 -0.3999,-14.60258 l -0.1084,-0.19921 c -1.57471,-2.95596 -6.40869,-2.7465 -9.30469,-2.55607 -0.35449,-2.45793 -0.006,-5.66438 1.73877,-7.53053 2.06396,-2.05951 5.521,-1.86322 8.12695,-1.9643 6.89502,-0.26513 13.87354,-0.16992 20.74512,-0.48192 z" fill="#dd8f1b" id="path40"/>
      <path d="m 53.6937,209.09567 c 7.23003,-0.0674 20.21909,-0.14941 26.09326,5.01547 1.3292,1.16744 1.63286,2.33928 1.67036,3.99158 -2.5834,0.003 -7.29375,-0.1582 -9.38145,1.61274 -0.4812,0.40721 -0.05947,4.12927 -0.0479,4.98178 0.0416,4.29479 0.02124,8.58958 -0.06123,12.88291 -0.85591,-0.37499 -1.75635,-0.71482 -2.62896,-1.05758 -6.24741,-2.07123 -13.74229,-1.81196 -20.18101,-1.90424 3.33574,-3.19766 7.43467,-6.31768 10.84468,-9.5915 -3.25884,-5.11215 -6.43345,-10.51286 -9.60439,-15.70265 1.02832,-0.17285 2.24033,-0.18749 3.29663,-0.22851 z" fill="#dd8f1b" id="path41"/>
      <path d="m 78.99946,220.53575 c 0.86162,-0.0703 1.74668,-0.0674 2.61313,-0.0806 0.15703,1.2319 0.21445,2.93106 0.29531,4.20251 -0.99946,-0.44969 -2.1145,-0.88181 -3.13887,-1.32271 -1.00591,-0.43358 -3.27188,-1.32418 -3.96343,-2.0141 l 0.03589,-0.2373 c 0.93047,-0.50096 3.0208,-0.50096 4.15796,-0.54783 z" fill="#dd8f1b" id="path42"/>
      <path d="m 221.08301,224.60057 c 2.27783,-0.16406 5.12109,-0.14502 7.10303,1.08102 -0.60498,0.27245 -1.18799,0.45555 -1.81494,0.66795 -1.76807,0.53026 -3.54785,1.02389 -5.33643,1.47945 -0.041,-1.23922 -0.0513,-2.00092 0.0483,-3.22842 z" fill="#dd8f1b" id="path43"/>
      <path d="m 134.05415,18.19266 c 0.54272,0.53289 2.4,3.50116 2.9187,4.29377 1.68047,2.51535 3.34526,5.04125 4.99453,7.57726 l -2.19888,1.29942 c -0.48823,-0.46214 -2.31387,-3.28759 -2.78086,-3.99392 -1.72456,-2.62067 -3.46318,-5.23197 -5.21587,-7.83375 z" fill="#e41417" id="path44"/>
      <path d="m 189.62109,34.74459 c 0.39111,0.38231 1.12793,1.60615 1.45752,2.1307 -4.01807,2.07811 -8.05078,4.12722 -12.09814,6.14718 -0.36475,-0.19379 -1.13672,-1.7081 -1.37549,-2.1389 3.79688,-2.05013 8.15479,-4.20793 12.01611,-6.13897 z" fill="#e41417" id="path45"/>
      <path d="m 151.94385,14.67319 2.61035,7.3e-4 -0.0117,13.2639 -2.60303,0.01216 c -0.12891,-3.99934 -0.0791,-9.28243 0.004,-13.27679 z" fill="#e41417" id="path46"/>
      <path d="m 171.39697,19.74051 c 0.91992,0.35287 1.53809,0.63353 2.42285,1.06886 -1.71826,3.79984 -3.46289,7.5881 -5.23242,11.36479 l -2.53711,-0.97936 c 0.45557,-1.13405 1.21729,-2.59797 1.74463,-3.73978 1.16455,-2.58845 2.36572,-5.16034 3.60205,-7.71451 z" fill="#e41417" id="path47"/>
      <path d="m 117.623,32.78425 c 0.79849,0.69915 3.06768,2.06771 4.06333,2.69743 2.11729,1.35845 4.24453,2.70109 6.38174,4.0279 -0.60337,0.94904 -0.86206,1.30528 -1.60269,2.14857 -2.08799,-1.53028 -8.23755,-5.4076 -10.50615,-6.72152 z" fill="#e41417" id="path48"/>
      <path d="m 161.38623,253.84821 c 0.32373,0.47752 0.36182,4.72984 0.38672,5.56917 -0.7749,-0.82908 -1.13525,-1.18063 -2.01562,-1.89106 -0.58301,-0.45702 -1.44873,-0.97995 -2.09033,-1.39156 1.32275,-0.93747 2.29541,-1.50874 3.71924,-2.28655 z" fill="#dd8f1b" id="path49"/>
      <use x="0" y="0" ns1:href="#path49" id="use49"/>
      <use x="0" y="0" ns1:href="#path49" id="use50"/>
    </g>
  </svg>